<?xml version="1.0" encoding="UTF-8"?>
<svg id="Layer_3" data-name="Layer 3" xmlns="http://www.w3.org/2000/svg" width="2048" height="2048" xmlns:xlink="http://www.w3.org/1999/xlink" viewBox="0 0 2048 2048">
  <defs>
    <style>
      .cls-1 {
        fill: #2b0858;
      }

      .cls-1, .cls-2, .cls-3, .cls-4, .cls-5, .cls-6, .cls-7, .cls-8, .cls-9, .cls-10, .cls-11, .cls-12, .cls-13, .cls-14 {
        stroke-width: 0px;
      }

      .cls-2 {
        fill: #03122d;
      }

      .cls-3 {
        fill: #a82849;
      }

      .cls-4 {
        fill: #e07017;
      }

      .cls-5 {
        fill: #e09e93;
      }

      .cls-15 {
        filter: url(#drop-shadow-1);
      }

      .cls-6 {
        fill: #fb5653;
      }

      .cls-7 {
        fill: #0e1027;
      }

      .cls-8 {
        fill: #fefdc8;
      }

      .cls-9 {
        fill: #051029;
      }

      .cls-10 {
        fill: #d8b6df;
      }

      .cls-11 {
        fill: #fea924;
      }

      .cls-12 {
        fill: #b607d9;
      }

      .cls-13 {
        fill: #cc501d;
      }

      .cls-14 {
        fill: #7007d9;
      }
    </style>
    <filter id="drop-shadow-1" filterUnits="userSpaceOnUse">
      <feOffset dx="6" dy="6"/>
      <feGaussianBlur result="blur" stdDeviation="32.5"/>
      <feFlood flood-color="#000" flood-opacity=".31"/>
      <feComposite in2="blur" operator="in"/>
      <feComposite in="SourceGraphic"/>
    </filter>
  </defs>
  <g class="cls-15">
    <path class="cls-1" d="M1392.7899,1431.1812c-15.1469,0-30.4056-4.3927-44.7673-12.8083-23.7666,12.8482-53.7292,12.1442-78.4674.2048-40.923,17.6022-88.8444-1.6338-107.7028-42.5121-32.3457,2.7106-34.844-11.8288-73.2706-21.6487-25.523,14.4643-59.0855,14.8802-84.3585.1385-34.5161,10.3396-42.6047,27.0107-73.8614,22.4624-18.6546,39.0943-65.1695,58.4939-104.6881,41.3495-24.1182,12.5859-54.4238,12.7968-78.3688.0493-129.3426,45.9061-183.6072-132.2433-71.3304-193.1407,53.1478-29.4118,131.2907-30.764,186.2918-6.2987.6022-.8867,1.2404-1.7468,1.9128-2.5804-39.2138-15.0845-74.5894-30.7546-115.5664-42.9732-31.9722-12.0406-79.1139-19.6215-100.1124-50.753h0c-10.7459-23.1494.9769-43.0502,19.6913-61.1062-26.9906-8.3462-47.6765-43.6412-27.4572-69.9573,16.0952-21.4679,34.9174-46.5701,44.8298-72.6671-62.9943-82.2634-85.1353-187.0924-80.7533-324.3406-2.9687-55.8491,5.0726-111.2803,71.2617-111.5526,114.355.0521,256.7067,103.0774,304.8735,194.2508,45.5723-1.5334,79.4789-3.2642,131.6171,1.4842,51.0814-97.3976,143.6533-155.8628,209.1119-176.1417,65.8423-20.5474,168.287-45.2541,166.6958,59.8611l-19.3196,2,19.3347-1.8398c7.5773,104.2901-25.3303,288.0027-80.2314,357.8319,10.502,24.4771,29.5936,52.083,44.364,70.4374,24.5437,23.9132,11.9128,64.9321-17.4293,75.4863,18.5641,20.4097,21.1762,59.0819-6.4885,73.7571-64.4522,33.8431-134.3568,48.5893-199.6936,77.319.4837.6619.9445,1.3353,1.3846,2.02,82.3768-38.8203,221.3238-16.1036,245.5194,82.7045,18.9847,56.1926-20.981,130.0055-83.0215,128.9637ZM1446.7637,1118.9331c-.0228.0664-.0474.1318-.0702.1973.0228-.0654.0474-.1309.0702-.1973ZM1428.9008,1111.0723h.019-.019ZM1410.0288,1106.0556c-.0171.0095-.036.0199-.0531.0303.0176-.0108.0337-.0193.0531-.0294v-.0009ZM1402.353,988.6579h.019-.019Z"/>
    <path class="cls-8" d="M1196.1121,1303.3428c34.3443-85.7117,220.2248-85.0241,242.2415,9.1635,9.1041,38.9473-74.7884,40.4284-78.9462-.971h0c-10.1064,49.4239-90.5865,48.3314-106.317-3.2671,0,0-11.7961,48.4129-46.0671,26.6166-9.8052-6.2361-15.7395-19.7038-10.9111-31.542Z"/>
    <path class="cls-5" d="M836.4889,1373.9725c6.6736-19.175,13.0257-40.0579,5.4734-59.7535,1.0895,101.7058-118.4089,99.1098-104.25-3.7177,14.743,44.7561,93.0522,31.6405,100.5439,2.0047,1.219-4.822,4.8302-4.8149,6.6298-.6564,7.2717,9.038,8.9908,23.3547,21.7325,26.806,20.7734,2.8337,25.5173-8.0746,33.0335-23.7437,11.775,38.7295-19.1148,83.5925-59.3486,67.4721-3.3117-1.3269-4.9872-5.0421-3.8145-8.4115Z"/>
    <path class="cls-5" d="M1359.3387,1311.8076c16.5518,37.7743,61.8068,39.9023,79.0149.6987,16.1015,49.7249-31.4053,109.6372-83.3506,63.0047,7.4542-21.4379,6.4982-41.75,4.3358-63.7034Z"/>
    <path class="cls-6" d="M1082.9891,1266.5473c31.2859-18.9409,71.3013-47.441,109.2268-29.6884.059.1521.164.1965.3155.1329.5443.2685,1.0883.5371,1.6323.8056.0789.1555.2023.2081.3701.1581,6.8856,3.9827,1.5397,6.0434-1.2718,8.7517-11.5211,10.4821-21.0721,22.3735-28.3705,36.1898-25.2172-13.4669-54.0987-18.9276-81.9025-16.3497Z"/>
    <path class="cls-11" d="M646.0529,547.7696c124.4099-26.7815,258.9063,67.6393,313.4761,169.6696,8.7231,11.7668,75.9939-2.5658,88.0032-2.6091,15.0436-.0542,89.1876,12.1144,90.3537,5.2276,3.3053-19.5206,26.2386-50.3874,28.4738-53.6176,82.6126-77.1268,106.8606-92.5665,179.1954-108.8626,33.2444-9.7969,68.2123-17.5984,102.7981-8.931.1645,11.2695,4.9032,43.4295,2.7553,53.6377-1.8538,8.8108-100.1539,281.1597-90.723,334.5555,2.6384-3.7571,51.407,65.714,62.8962,79.718,3.5659,5.6938-72.3376,28.4418-54.9607,41.6408,6.907,5.2463,46.4075,33.7457,41.844,47.7837-66.6926-34.4171-135.9606-86.9647-214.9799-88.1147-22.719-.634-53.3703-5.4277-71.6752-20.3071-27.6972-26.567-50.0383-43.4905-94.0968-33.3439-51.3949,11.7348-64.5347,49.3217-122.8794,47.1837-84.8576-.4644-223.2244,98.3995-223.2244,94.0319,0-9.2184,43.9923-42.1498,45.6111-54.8995,1.1117-8.7556-63.6966-27.5464-56.8303-35.9938,17.5255-24.7073,59.647-75.6338,62.4022-95.4493-2.4651-27.8823-48.358-83.3348-60.5557-112.8308-9.6187-45.1922-39.9018-208.5591-27.8836-258.489Z"/>
    <path class="cls-4" d="M1414.0165,612.2483c2.2577,5.3612,30.3299-9.9304,37.092-9.9641,1.0322-.0052-10.1404,207.6521-71.6852,291.9175-19.3348,25.0972-21.5965,5.0141-5.4155,45.4419-5.6146,4.1229-12.1421,3.3137-18.5075,3.3805-36.9422-59.6378-81.6519-114.0287-129.1925-165.4795-10.2832-10.8228-7.6936-28.074-5.3738-40.5063,66.1496,32.9465,96.3895,73.3078,130.4463,131.6448,41.0918-71.7142,51.8962-171.3147,62.6362-256.4347Z"/>
    <path class="cls-4" d="M872.8298,738.1471c4.2828,13.4591,4.2054,31.3708-7.9125,40.666-15.6857,18.6099-31.3519,37.2379-47.1156,55.784-28.1476,33.9799-56.1792,69.4588-77.3988,107.9106-7.2959-.513-14.5917-1.026-21.8874-1.5391,19.5391-48.0742,11.9168-20.1305-16.204-64.7567,0,0,.0093.0166.0093.0166-50.8103-80.2642-61.404-182.4068-59.4117-274.1178,11.8867,5.1113,24.0745,11.4058,37.0582,12.611,10.432,87.0918,22.5887,176.0469,60.9131,255.8852,30.2129-53.2731,69.9442-114.5223,131.9493-132.4599Z"/>
    <path class="cls-8" d="M899.652,1314.912c-5.7297,15.0537-14.4752,28.0356-33.033,23.7418-12.9009-2.7267-17.6011-16.9813-23.9291-26.6931-11.9492,44.2877-89.5113,46.4594-106.0125-3.7163-10.2695,19.5205-28.2477,40.2622-50.5424,31.5594-15.1377-4.6217-29.0165-20.7322-29.3682-34.0897,4.7242-20.6092,21.0753-36.5113,38.845-46.9249,0,0-.0186.0182-.0186.0182.651-.3338,1.302-.6676,1.9529-1.0013,0,0-.0161.015-.0161.015,4.2449-1.926,8.4897-3.852,12.7346-5.7781,0,0-.0228.0199-.0228.0199,60.8166-24.2385,173.0037-12.7798,189.4101,62.8491Z"/>
    <path class="cls-5" d="M683.3093,1105.432c86.6096-34.7755,168.155,32.9686,240.5198,72.3349,43.434,23.5555,93.9331,39.8261,143.9275,34.3668,116.8739-10.2001,197.5195-127.4281,318.9762-114.8278,7.6453.2528,18.9566,1.0889,23.4323,8.6763-57.2589,30.8737-124.0098,43.8694-183.6384,71.0439-51.8827,18.9787-104.9566,36.96-159.2866,47.4271-57.8365,6.9956-111.877-20.4778-166.215-35.7558-30.4629-10.8692-60.1531-23.8631-90.5486-34.9316-41.1812-17.5486-89.3-24.8859-127.1672-48.3338Z"/>
    <path class="cls-13" d="M1136.6055,731.8817c-3.4778,17.512-23.0219,66.4751-28.6211,65.5822-4.9491-.7892-15.4582-38.4603-19.2413-58.7618-.4807-2.5796-4.1979-2.5011-4.5894.0935-7.0181,46.5161-21.4005,118.8246-35.704,118.8246-11.026,0-27.4793-79.0888-37.5937-125.1041-.3584-1.6304-2.7073-1.5393-2.9426.1133-3.2149,22.5834-8.5373,80.7353-26.7823,60.8959-15.1008-16.4232-23.7637-51.8697-21.7286-74.8003,9.3197-3.9568,75.0556-3.3602,90.5755-4.5506,24.3055-.0184,84.4773,5.2299,86.6275,6.0468,3.7108,1.4096.9375,4.3565,0,11.6606Z"/>
    <path class="cls-3" d="M1082.9891,1266.5473c27.9024-2.4282,56.6352,2.6863,81.9025,16.3497-27.9009,74.7751,25.0719,60.9869-74.0904,31.5743-7.4087-2.7197,5.1394-12.9997.9073-17.7961-17.4152,38.2295-72.581,41.936-89.0988-.9291-1.0339,3.5256.0409,6.7321,1.2077,10.0476.797,2.2647,3.3442,4.2665,1.603,7.1224-100.2204,34.1543-51.2181,44.6-75.3934-26.6287,22.8969-14.9824,57.542-25.2292,81.1911-18.5406-3.3494,5.5733-10.4429,13.0288-4.8424,19.3864,3.0746,3.0887,6.8082-1.7274,9.4783-2.8218,24.125-11.6723,51.3608-7.8522,75.4664,1.8338-.5761-7.1247-4.9769-13.4279-8.3313-19.598.9825-.3391-.9825.339,0,0Z"/>
    <path class="cls-5" d="M1194.7436,1308.167c-2.9399,26.5183,33.8378,46.9653,47.7535,17.7906,3.5693-5.7966,5.9091-12.7999,10.5932-17.6894,15.018,46.036,85.568,49.1481,106.3169,3.2669h0c-4.3737,17.2397-2.8309,38.526-12.7295,55.6281-22.3296,40.0908-84.9351,20.6803-91.4012-24.0701,0,0,.0621-.155.0616-.1549-2.0194-10.5647-2.2905-21.2297-2.7576-31.9502-11.3481,40.6983,1.1722,38.1376,5.8904,70.0848-47.4788,22.0452-80.2898-31.2462-63.7274-72.9058Z"/>
    <path class="cls-8" d="M1448.3532,548.6465c-98.5061-14.6949-200.9517,37.573-263.2441,112.3689-4.4348,4.2644-17.818,18.2562-18.4715,11.7217,29.42-65.7628,101.4262-109.9441,167.9852-133.4802,0,0-.0042.0056-.0042.0056,1.9557-.644,3.9114-1.2881,5.867-1.9321,0,0-.0095.0096-.0096.0096,26.6671-5.3631,108.3836-35.7836,107.877,11.3065Z"/>
    <path class="cls-8" d="M929.5602,668.9463c4.024,6.9263,1.7509,18.0574-4.6634,7.7377-66.4803-81.3531-171.0029-142.9623-278.8439-128.9144.2867-39.003,49.8744-23.6113,73.8749-18.9675,125.866,24.3536,209.4279,139.8353,209.6324,140.1441Z"/>
    <path class="cls-5" d="M656.7669,1305.7141c.3517,13.3575,14.2304,29.4679,29.3688,34.0915,21.6514,8.4125,39.1428-10.7703,49.634-29.8275-6.4322,22.4375-6.6869,44.5247,4.0797,65.8783,2.7021,5.9458-10.0385,6.3147-13.6776,8.1204-35.0822,11.2298-63.3597-10.1765-70.0017-37.6962.0002.0001.0619-.1601.0619-.1601l-.1647-.0578c-3.7766-13.1906-3.3017-27.3447.6996-40.3484Z"/>
    <path class="cls-6" d="M1011.2182,1267.7469c-28.5393,1.675-56.0274,4.9064-81.191,18.5407-7.9785-17.3994-19.8285-32.5013-35.1018-44.1116,0,0,.049.0486.0488.0486-.3969-.4218-.7541-.8274-.5755-1.4317,3.3915-2.2867,7.0962-4.0079,10.7665-5.7542,0,0-.014.0126-.014.0126,1.3-.4912,2.6-.9824,3.9-1.4735,0,0-.0051.0061-.0051.0061,19.9963-5.5444,40.5078-1.1119,58.8446,7.437,0,0-.0383-.0277-.0377-.0285,13.6552,6.8709,30.7407,18.2051,43.3653,26.7546Z"/>
    <path class="cls-4" d="M1330.3268,1003.4932c29.7353-1.6476,63.6773,15.0279,92.9534,13.0672,20.4271,19.3539-51.9848,21.2935-55.615,36.383-3.0518,2.6678.4582,2.3254.5802,5.1468-23.8317-13.0666-52.5971-26.4072-71.1356-46.3216,24.3407,9.3478,47.2311-.9374,33.217-8.2754Z"/>
    <path class="cls-13" d="M718.5155,940.9686c25.2222,2.8626,51.801,1.4105,76.3563,6.4583-29.6953,23.0364-66.9019,39.9588-104.8578,43.3369,10.3805-16.1013,20.8196-32.1694,28.5015-49.7951Z"/>
    <path class="cls-4" d="M796.9508,1011.224c-20.8583,14.1581-62.6953,44.7045-68.0303,39.3085-19.6976-19.9228-62.5135-25.3682-56.8306-35.9935-2.1538,4.0269,40.8111-2.5526,95.0722-11.486-16.4182,2.7031,5.9611,21.4318,29.7888,8.171Z"/>
    <path class="cls-13" d="M1355.5002,943.024c6.3654-.0667,12.8929.7424,18.5075-3.3805,8.7492,16.8002,17.1243,33.8107,28.4402,49.1459-35.2428-2.207-74.2774-17.9056-102.9867-41.1692,17.7953-5.7091,37.5199-2.7398,56.039-4.5962Z"/>
    <path class="cls-6" d="M1082.9891,1266.5473c3.3537,6.1686,7.7557,12.4744,8.3313,19.598-29.7121-8.7991-46.062-14.6051-76.233-.6184-2.67,1.0922-5.637,4.6951-8.7112,1.6064-3.737-3.7547-1.7116-8.1516.1736-12.1168,13.1051-27.317,56.2073-27.9631,76.4392-8.4692Z"/>
    <path class="cls-8" d="M1395.4318,1097.5737c-125.3077-17.1448-208.1903,103.2014-327.6752,114.5601-49.9998,5.4606-100.486-10.8133-143.9268-34.3646-73.2583-39.6861-152.3167-106.6789-240.5204-72.3371,68.1137-41.5392,140.1543-93.7725,223.2268-94.0263,60.2158,1.249,74.9555-64.0485,127.0956-75.9559,44.072-10.1255,70.0169,27.9517,97.7232,54.5312,18.3064,14.877,40.0183,21.3341,62.738,21.9664,76.2357,1.9249,138.077,48.9913,201.3388,85.6263Z"/>
    <path class="cls-3" d="M1414.0165,612.2483c-9.7428,87.2636-13.1171,178.7632-62.6359,256.4344-24.6878-52.1273-76.1433-99.6423-130.4467-131.6446,15.6228-28.5792,60.0785-127.706,120.9512-161.8772,54.6314-30.4788,78.7154-35.9071,72.1314,37.0874Z"/>
    <path class="cls-3" d="M740.8804,870.607c-35.8659-74.5558-48.7021-157.3218-58.8618-238.7186-19.5904-114.3629,38.0675-80.5616,103.3719-33.7236,45.4321,34.3113,78.9134,110.8523,87.4392,137.7191,4.9831,15.7028-110.7234,96.7459-131.9493,134.7231Z"/>
    <path class="cls-13" d="M1333.1019,1003.6087c14.0102,7.3342,32.3636,12.1387,43.8921,21.5434-42.0696,10.603-86.5956-12.8083-119.8713-36.8952,25.6318.2119,51.4537,7.6189,75.9791,15.3518Z"/>
    <path class="cls-13" d="M796.9508,1012.7691c-23.7498,13.2336-53.2934,16.188-79.6991,11.7405,35.8873-20.3232,78.3319-35.1363,119.8775-35.9134-12.2026,9.4321-27.0327,15.8545-40.1783,24.1729Z"/>
    <path class="cls-13" d="M1124.8033,846.1846c-9.4535.0296-16.3881-7.7489-16.4069-18.4036-.018-10.2923,7.4614-17.9315,17.5715-17.9467,9.5118-.0143,17.975,8.6062,17.9848,18.3193.0096,9.4715-9.0473,17.9994-19.1494,18.031Z"/>
    <path class="cls-13" d="M968.0517,846.1833c-9.7651-.0171-17.6494-8.3145-17.5783-18.4996.061-8.7451,9.2908-17.4617,18.4593-17.4331,9.1973.0287,17.1324,8.2968,17.0984,17.8161-.032,8.9769-9.1179,18.1321-17.9795,18.1166Z"/>
    <ellipse class="cls-9" cx="899.2978" cy="928.0789" rx="66.5129" ry="69.4815"/>
    <path class="cls-2" d="M1045.9553,1078.8755c-49.4843,46.5921-113.3684-20.2096-83.4203-48.6405,4.9949-2.8133,12.1822-.207,13.9554,5.2377-3.1747,60.9137,93.0558,33.9176,46.3561-4.757-6.4072-6.1664-17.9249-6.5591-21.7672-15.092-3.7371-18.8425,34.882-17.7846,46.862-18.0634,35.2939-.9461,71.3602,10.7555,21.6461,34.559-32.8524,27.9932,22.8048,54.6305,41.6893,26.8755,7.0552-9.6099,5.6612-24.6159,11.3988-28.6377,3.2772-2.2249,8.329-1.2333,12.1014,1.6684,7.8527,7.2019,4.9425,20.2207,1.837,29.184-16.3843,33.5469-45.6334,40.1544-78.1224,23.4186-3.4044-1.7553-8.0592-9.3661-12.5364-5.7527Z"/>
    <ellipse class="cls-9" cx="1195.1851" cy="928.0789" rx="66.5129" ry="69.4815"/>
    <ellipse class="cls-8" cx="896.3854" cy="906.0712" rx="23.5556" ry="22.5618"/>
    <ellipse class="cls-8" cx="1196.4695" cy="906.0057" rx="23.5556" ry="22.5618"/>
    <g>
      <path class="cls-1" d="M650.3637,1041.3797c-173.7715-14.9412-142.0696-337.8172-5.6047-381.9027,3.8711-9.0306,9.3338-16.6643,16.2166-23.1224,17.5274-146.3429,213.7526-277.9855,382.3822-274.6999,162.9558-1.3119,355.6185,108.2993,390.7548,272.8725,7.4245,6.2116,13.4569,14.6054,17.7254,24.7592,72.9024,29.0129,106.0054,106.7255,107.1366,194.1635,7.451,43.7517,5.1524,91.3647-19.3806,128.0819-23.6282,35.7422-74.3451,75.064-117.1298,52.1882-42.0072,14.0256-74.1739-26.5604-72.9621-80.0884-2.5894-27.7151-6.4646-55.0446-10.3891-82.6248-5.4095-37.7211-11-76.7035-12.2034-116.4076-6.3187-10.1538-8.3136-29.6852-10.7026-42.6534-1.4979-10.6915-5.1778-21.5241-2.6016-32.3261-2.797-13.3089,1.0154-28.2007,10.2316-38.2778-106.3775-209.1474-444.8738-212.0276-549.4618,1.9441,24.9969,23.5797-13.5067,171.3821-14.9357,214.0212-6.0302,41.5087-12.2579,84.4201-17.7194,126.5045-2.7772,37.7886-38.3087,59.0954-68.7726,50.3293-6.5597,4.6962-14.4147,7.2387-22.5837,7.2387ZM1348.6958,943.4343l.0028.0142-.0028-.0142ZM764.5959,673.5048h.0199-.0199Z"/>
      <path class="cls-14" d="M1443.7445,994.8519c-2.3518-46.772-3.5053-93.6176-6.9714-140.3234,7.6905-2.8207,15.2431,4.552,21.0862,8.8732,3.2712,3.5635,5.2691,1.08,1.1767-1.5303-1.0962-1.1463-3.279-2.5367-2.5425-4.3317,13.4507-1.6626,18.9674,14.5511,21.5906,25.3858,8.6382,22.5932,16.5941,5.628,12.2196-9.3119-.949-6.8371-4.7181-13.8426-4.7488-20.4771.8182-.8455,1.7424-.2104,2.5953.1039,2.9429,1.0279,5.6138-2.3495,9.0559-1.8132,19.149-1.6177-11.6128-40.8637.1507-32.4308,5.9815,12.0791,13.6305,23.7319,16.7029,36.8708,2.7084,21.9415,6.6192,45.4654,2.0217,67.7461-7.3461,34.1639-37.7748,67.1405-72.3369,71.2386Z"/>
      <path class="cls-14" d="M1422.8722,720.5628c2.0474,8.8158.9451,15.5051-10.3669,15.1546-6.4867.425-1.6029,12.6-2.8053,17.1705.6025,9.4867-41.7365,2.0403-38.6643,9.3983,2.1387,32.8967,5.9931,65.7429,11.1852,98.2862,5.4403,20.3723,27.1415,6.7727,29.7768,11.2256,1.3379,24.4363,2.6064,48.8751,4.043,73.3041-1.7604,14.569,11.1236,45.6396-6.1792,51.8753-24.1203,5.3356-19.7318-47.6992-23.4237-62.7296-6.1247-60.9578-19.1598-121.623-20.7601-182.8791,1.1212-8.7078-5.8159-14.4927-7.1149-22.2333-2.2973-13.6892-4.7157-27.3582-7.0506-41.0412.6912-2.577,2.4439,1.9078,2.3948-3.8747,5.0891,9.2916,3.4738,23.1249,11.0753,32.1948,11.2552,12.0453,41.8738,2.7444,57.89,4.1485Z"/>
      <path class="cls-14" d="M745.2951,671.3675c-11.6699,102.478-28.9951,206.1486-42.3201,309.1767-.1088,17.901-27.1473,25.1319-25.8052,3.2509,1.7933-38.7394,4.6966-77.442,6.3395-116.1998,1.4317-1.0918,2.4667.0141,3.5491.6748,9.789,6.6289,26.2879,6.0718,28.0766-8.1133,5.698-30.9906,7.5664-62.5938,11.95-93.7776.2143-5.4399-.0444-5.6032-5.5191-6.1642-10.3308-1.6472-21.3528-1.1971-31.3561-3.751-.0871-4.8019-.6289-9.6507-.1405-14.3933,1.8696-13.8105-22.4344-.6565-15.6205-21.0096,66.0581,3.8078,53.8414,14.2034,70.8463-49.6935Z"/>
      <path class="cls-14" d="M716.7097,631.5838c15.2864-5.7698,31.2569-38.4793,43.805-56.1224,147.0169-206.7106,490.3091-188.0831,597.0801,45.5937-119.6398-212.4719-421.9543-241.0106-579.6388-53.4438l.0321-.0254c-11.6158,13.5385-21.4084,28.4829-30.4197,43.8176l.0038-.0077c-9.705,16.0015-9.1944,26.1089-30.8626,20.188Z"/>
      <path class="cls-12" d="M1513.3872,854.1044c-5.3218-12.2408-10.8181-25.1593-18.0129-36.1983.453,9.7161,19.3612,30.706,2.2823,34.0543-3.9655-.0924-7.299,4.6562-11.4616,1.232.5647,11.8997,13.3114,33.1119.9867,41.6974-15.8169-5.0069-8.2005-36.4806-30.3374-36.9858,1.6898,3.01,4.2397,5.405,6.3946,8.0811-7.8792.9157-13.9369-13.1686-26.4659-11.4568.0567-8.9268-12.5868-155.4932-7.0385-120.6593,5.0401,19.3559,1.5969,75.092,20.2128,83.0937,35.6191,4.3589,25.0417-8.3494,34.8659,28.731-6.1355-22.6296-6.2544-46.4308-9.5684-69.6384.4523-8.2935-5.028-19.9938-1.3146-26.8927,8.4288,12.3403,10.8247,29.9014,15.7037,44.4661.2012.9111.9981,3.1691,1.9169,1.5051,4.0778-2.8088,3.6242-26.018,9.0738-19.4277,9.3251,22.0891,11.2199,46.8017,13.6836,70.5159-.3284,2.6204.7644,5.6216-.921,7.8825Z"/>
      <path class="cls-12" d="M690.2098,756.464c12.0554,1.2136,24.3236,1.4832,36.0562,4.1278,4.3947.9906,1.4982,8.1704,1.0315,12.3229-2.9589,26.3258-6.3096,52.6077-9.5502,78.9017-2.73,23.9145-14.5418,26.0199-34.238,15.7783.7584-37.1347,4.5178-74.0878,6.7005-111.1308Z"/>
      <path class="cls-12" d="M1411.9974,871.7995c-2.6729-2.0134-4.7455.7101-7.1458.9606-17.443,1.8204-23.032-3.2115-25.2975-21.7897-3.6631-30.0386-7.7699-60.023-9.7216-90.2455.681-5.1452,30.362-2.5228,36.736-4.2276,2.1448,38.4199,4.4418,76.8307,5.4289,115.3022Z"/>
      <g>
        <path class="cls-12" d="M657.1145,868.701c.3047-2.3812.3984-4.3305.3382-5.9595-.2817,2.9639-.4194,5.0693-.3382,5.9595Z"/>
        <path class="cls-12" d="M660.3341,790.2987c-4.0879,28.1553-13.1366,29.8192-39.5263,26.9542-2.4709-.3153-3.9072,1.308-4.7808,3.8153,4.0524-37.3174,6.0946-75.4765,16.5939-111.0889-11.7541,8.85-7.9991,30.1383-14.2438,43.4881-.2565,3.2686-2.5024,6.7507-3.2845,10.0315-4.9266,1.1419-14.7311,9.1127-18.6794,10.4158-6.1078,19.5831-14.4247,77.8599-14.3378,78.0271-.7027,3.5083-2.2141,18.8936-2.2901,22.5511.6609-7.7907,9.6339-22.8213,15.9902-34.0675-.7393,7.0236,1.8237,10.8312,11.7468,6.0046,13.6887-4.2541-13.2873,45.8019.9955,47.9014,14.3091.0485,12.4152-29.4564,27.0237-32.0173-1.3009,4.8705-6.4551,8.0788-7.5795,12.9274,7.8236-5.877,28.8309-30.3459,29.4906-12.5001,1.9107-20.1096,10.4883-80.0343,2.8814-72.4428ZM614.4072,834.8367c-.1117,1.7587-.262,3.2901-.5555,4.3487.195-1.4459.3713-2.8988.5555-4.3487Z"/>
      </g>
      <path class="cls-12" d="M745.2951,671.3675c-12.7187,62.6517-9.4013,56.3175-70.8472,49.6939,6.1099-55.2595,10.6024-60.2915,65.4766-48.4237,15.8658-5.9364-34.57-10.7109-38.3451-10-3.2519-.6832-7.5023,1.9467-10.0722-.1379,10.0901-5.1155,48.6963-3.8182,53.9438,7.0938-.1959.5536-.085,1.1889-.1559,1.7739Z"/>
      <path class="cls-12" d="M1422.9033,720.5675c-54.6325,3.906-62.1662,13.5179-70.5509-46.5117,15.7149-5.0419,33.9237-7.2936,50.787-6.0408,17.755,2.0352,17.3645,38.9026,19.7639,52.5525Z"/>
      <path class="cls-10" d="M1393.9983,621.776c-83.0012-190.116-325.8748-276.3332-511.9537-184.1528-111.6192,55.2943-140.8476,101.4015-177.7534,177.047-3.2229,5.9148-11.1216,18.977,2.1292,16.2,12.6781-27.4841,29.1056-53.4111,46.7468-77.9188.1708-.0318.2569-.1379.2702-.3079,146.371-198.9194,528.3479-173.3767,638.7977,77.7886,6.3814-1.6505,2.781-5.9313,1.7632-8.6561Z"/>
      <path class="cls-10" d="M742.2275,667.4282c-16.8021-4.2898-33.9997-7.7451-51.3874-4.6818l.0205.2258-.1777-.1409c-.5865.2929-1.1778.5757-1.741.9116l.026.1834-.1632-.0877-1.1441.7436.0978-.0238c-13.3707,11.7359-10.9488,32.8136-12.7424,49.049,2.7814-11.3683,5.5626-22.7363,8.3453-34.1043-.0013.0012-.002.0027-.0033.0039,9.7025-27.9777,73.385,7.0614,58.8696-12.0788Z"/>
      <path class="cls-10" d="M1420.0317,693.1085h.0001c-.6968-13.2291-5.8212-29.5214-16.9025-31.7021-16.4301-1.86-36.049-1.1797-50.696,6.219-.1545.0984-.1797.3022-.1583.4678l-.1962.1152c-.1894.9737-.3787,1.9474-.5682,2.921.5882.5431.0811,1.3309.4341,1.9287.4158.2164.3387.6377.4077.9977,9.6734-1.6678,19.2902-4.1962,29.0311-4.8369,26.2416-1.7257,30.8166-3.4073,36.3606,21.1491,1.0064,4.0965,2.2427,8.2757,3.3112,12.4084-.3413-3.2222-.6824-6.4448-1.0237-9.6678Z"/>
      <path class="cls-10" d="M664.0405,696.7933c-9.08-.4473-19.2649,1.3738-26.2827,7.4219.1884-.3369.3708-.6954.5618-1.0227-1.5885,1.345-13.3033,13.2222-14.8915,14.5673h.0001c-61.5665,61.4022-89.5401,266.7986,26.9457,284.7767-.1885-2.2102-.377-4.4204-.56-6.6302-100.8538-29.1146-68.8162-145.0479-52.7928-221.9545,1.8962,6.1256-.071,14.4873.4403,21.3289,3.2019,19.4763,19.3552-33.1255,20.3084-37.3602-.0076.013-.0151.0262-.0226.0392,3.0798-7.6014,6.2492-18.4602,9.8753-29.2201-2.754,13.2307-5.4041,30.0167-6.6121,41.2961-2.9572,24.0864-6.7614,48.9693-7.5158,73.3391,1.4248-2.2563.5833-6.3776,1.5758-9.0576,2.8794-6.0761-3.82-18.7904,11.9456-15.9372,26.0349,5.4846,28.7108-6.2248,34.2444-28.4574.571,1.1452,1.1422,2.2905,1.7132,3.4358,2.1216-29.9178,4.3786-59.8232,8.3903-89.5635.776-5.7529-1.623-8.0747-7.3233-7.0017Z"/>
      <path class="cls-10" d="M1521.3825,870.8567c-.6706-5.353-.8986-10.7465-1.2511-16.1425-.0769-50.8633-11.9159-102.5207-50.6846-138.1488-.1433,1.6352-.2922,3.2701-.4055,4.9078-6.4403-16.8668-19.449-26.3527-37.8449-25.2199-13.8295-.8668-1.8667,25.991-2.8953,34.423,3.2943,21.0962,3.9798,43.2458,8.4117,64.4145,6.9635,43.1032,35.3732,13.4772,41.8311,27.9463,2.4135,8.2726,2.9374,17.8695,7.0143,25.2894-5.7843-32.273-9.0799-67.0835-12.0141-100.3435,7.953,15.5777,10.7101,33.5137,17.1975,49.3654,5.4125-5.901,5.3111-15.0522,7.4051-22.4581,13.0753,20.8841,11.6811,50.6887,15.8159,75.0969-.1078-.3697-.2149-.7396-.3227-1.1093-.4913,22.7616,6.4963,45.2792,2.7729,68.212-2.7403,12.9241-8.6938,29.469-15.9226,41.061-16.4338,18.1537-32.7046,31.4664-56.7458,36.7008-.1547,3.6588-1.3898,8.7607,4.736,7.1836,59.2659-13.1595,85.2047-76.5956,72.902-131.1787Z"/>
      <path class="cls-12" d="M715.4833,631.5351c-3.0212-.2216-6.0424-.4432-9.0636-.6648,119.7769-295.3938,562.4751-290.8672,685.8161-.4383-35.8429,3.5719-29.0772,1.2805-35.9435-11.5898-126.7902-253.8511-497.1025-237.2544-624.2963,6.9719-2.2925,9.8331-8.8997,5.8085-16.5127,5.7211Z"/>
      <path class="cls-14" d="M657.1144,868.701c-2.421,42.4022-5.3447,84.7783-7.3059,127.2049-57.9882-13.0039-79.6777-73.4732-68.9428-127.6367,1.8377-9.2723,1.9061-19.1761,8.9784-26.438,10.5673-24.1874,3.6718-4.2861,11.9682-29.1401,5.0631-1.8968,7.9392-14.182,7.8653-9.8066-2.7463,7.1906-20.0873,41.775-9.6223,44.7405,21.9007-7.9327,9.2191,10.3753,7.8455,22.1649-7.7322,28.3256,4.3106,32.9791,15.0127,4.9648,2.8147-4.2937,6.752-14.8208,13.0571-12.583.6987,3.9355-5.4577,6.8723-6.2607,10.798,8.4958-7.9248,32.664-32.2402,27.4045-4.2687Z"/>
    </g>
    <path class="cls-7" d="M1219.4066,732.3641c38.8488-4.2919,77.0814,14.6083,108.6504,37.2313,4.5881,3.2879,1.8579,10.5074-3.754,9.9019-38.0083-4.1013-84.0826-15.9163-107.9364-37.666-3.447-3.1429-1.5965-8.955,3.04-9.4673Z"/>
    <path class="cls-7" d="M783.4466,778.6461c-54.5822,7.728-17.2191-16.5792,31.1776-35.6516,15.2164-5.9965,31.2456-9.7753,47.5404-11.1804,47.7196-4.1148,7.732,12.1379-21.7187,28.0764-17.7213,9.5906-37.0482,15.9309-56.9993,18.7557Z"/>
  </g>
  <polygon id="LeftEyelidTop" class="cls-11" points="959.1084 851.9139 814.7719 860.3251 827.0187 846.1847 952.8505 846.1847 959.1084 851.9139"/>
  <path id="LeftEyelidBottom" class="cls-11" d="M845.1869,997.5073l77.3832,5.5457s50.243-54.6885,50.4673-53.7913,7.8505,10.7664,7.8505,10.7664l-49.7944,46.2056-87.4766,1.2854,1.5701-10.0118Z"/>
  <polygon id="RightEyelidTop" class="cls-11" points="1131.9067 850.9125 1276.2431 859.3237 1263.9963 845.1833 1138.1645 845.1833 1131.9067 850.9125"/>
  <path id="RightEyelidBottom" class="cls-11" d="M1245.8281,996.5059l-77.3832,5.5457s-50.243-54.6885-50.4673-53.7913-7.8505,10.7664-7.8505,10.7664l49.7944,46.2056,87.4766,1.2854-1.5701-10.0118Z"/>
</svg>