<?xml version="1.0" encoding="UTF-8"?><svg id="Layer_1" xmlns="http://www.w3.org/2000/svg" width="2048" height="2048" viewBox="0 0 2048 2048"><defs><style>.cls-1{fill:#000;opacity:.08;}.cls-1,.cls-2,.cls-3,.cls-4,.cls-5,.cls-6,.cls-7,.cls-8,.cls-9,.cls-10,.cls-11,.cls-12,.cls-13,.cls-14{stroke-width:0px;}.cls-2{fill:#b2b3b3;}.cls-3{fill:#dfa532;}.cls-4{fill:#0f0a08;}.cls-5{fill:#e3a368;}.cls-6{fill:#fdfcfc;}.cls-7{fill:#e1e1e1;}.cls-8{fill:#fdb574;}.cls-9{fill:#f9f8f8;}.cls-10{fill:#fbba33;}.cls-11{fill:#fa724c;}.cls-12{fill:#f8b835;}.cls-13{fill:#c8cccb;}.cls-14{fill:#262021;}</style></defs><path class="cls-4" d="M529.1422,1830.2438c-67.1103-86.4108-69.9044-183.2526-44.263-283.7667,15.8645-62.1891,42.8238-119.4498,85.8703-168.1053,12.1863-13.7745,26.0131-25.6108,43.5837-34.796-7.3747-5.7764-13.9681-10.7503-20.3573-15.9738-86.0173-70.3235-141.1063-158.5303-155.5839-270.0248-.9217-7.0988-3.7393-8.7468-10.3696-8.5195-39.1175,1.3408-77.4203,6.7985-114.0909,21.1888-1.165.4572-2.3277.9317-3.452,1.4788-4.5899,2.234-9.3693,2.9-11.9015-2.3427-2.87-5.9419.9641-9.1088,6.2444-11.3214,22.4739-9.4177,45.8247-15.759,69.9207-18.8997,17.4003-2.268,34.9424-3.7639,52.4692-4.5973,7.5013-.3568,8.7209-2.7976,8.1418-9.6364-.9864-11.6467-1.5031-23.434-.8443-35.0846.4565-8.0718-2.2016-9.8512-9.723-9.9592-45.9536-.6601-90.9806,3.9392-133.8743,21.8171-5.4141,2.2566-11.6971,6.1242-14.9069-1.7056-3.2196-7.8538,4.1823-9.5704,9.46-11.8266,43.9705-18.7968,90.2499-23.9773,137.475-22.4263,9.8686.3242,13.2607-1.593,13.981-12.2588,1.2352-18.2893,4.6144-36.4807,7.9532-54.5544,1.0988-5.9485.526-9.9758-3.4682-14.6489-63.7527-74.5875-96.0798-162.3823-108.0342-258.6288-2.2107-17.7986-2.0703-18.1064,15.842-21.5097,47.8546-9.092,93.9405.0058,139.5746,13.8655,6.561,1.9926,13.2294,7.7024,19.9651,4.5448,11.2835-5.2894,21.9674-12.0047,32.3977-18.8865,3.6099-2.3818,2.1891-7.7836,2.6075-11.8813,16.7729-164.2908,83.3916-304.1396,205.77-415.9637,45.484-41.5612,97.854-72.5128,156.651-91.9433,5.2585-1.7378,9.9561-3.7395,11.64-9.8878,3.5063-12.8022,12.2348-18.1606,25.325-20.4876,86.399-15.3585,171.4264-12.0283,255.1325,15.8308,13.0775,4.3524,22.5808,10.6127,23.9945,25.2404.4222,4.3673,3.0638,6.2508,6.7014,8.0911,169.3023,85.6531,261.3244,228.05,300.3232,409.3244,10.772,50.0713,16.0231,100.7466,15.8922,151.9369-.0189,7.3896,3.0532,11.5574,7.7239,16.9407,20.3298,23.4323,42.8703,27.9962,73.6611,20.6215,38.6283-9.2517,78.9578-8.0012,117.9495,3.6625,19.1498,5.7284,19.1202,5.9721,14.5506,24.8258-22.2125,91.6449-62.4449,173.4243-131.0991,239.6281-4.0117,3.8687-5.0723,7.8-4.6777,13.3149.8356,11.6713,1.3303,23.454.6703,35.1177-.5245,9.2693,1.7764,12.5741,11.798,13.7643,43.8226,5.2047,86.0579,16.4835,125.4811,36.9557,1.4796.7682,2.9772,1.5015,4.4637,2.2565,4.7982,2.4371,9.1843,5.5967,6.1313,11.6079-3.1101,6.1242-8.0257,4.1913-12.8488,1.5818-21.0285-11.3766-43.2627-19.7351-66.2524-26.1753-20.1583-5.6468-40.6667-9.389-61.4007-12.2509-6.8998-.9524-8.7457,1.149-9.2049,7.4966-.7839,10.8355-1.5422,21.7744-3.7511,32.3697-1.4506,6.9574.739,8.1552,6.8042,9.4729,35.6525,7.7456,69.8962,19.5991,102.2187,36.7037,2.9496,1.5608,5.9528,3.0538,8.7537,4.8542,3.6816,2.3671,4.8471,5.9573,2.8337,9.7875-2.0867,3.9695-5.9661,4.464-9.7987,2.8972-3.8409-1.5703-7.4861-3.6382-11.1624-5.5907-29.6941-15.7719-61.3344-26.1264-93.8955-34.0055-6.6312-1.6047-10.2331-1.0172-12.1503,7.0146-26.569,111.2978-92.5652,193.7799-187.7463,254.4201-8.425,5.3675-9.4718,9.201-5.807,18.3558,38.2799,95.6289,49.9315,195.4384,45.2,297.6488-.6356,13.7312-2.1694,27.4207-3.3845,42.3243,16.6933-3.2048,31.472-9.5396,46.1062-15.8133,52.6395-22.5672,100.3119-53.1433,143.5471-90.6764,3.6846-3.1986,6.8888-8.1891,12.81-5.7521,5.2818,2.1738,4.4697,7.4804,4.8893,11.9703,7.7903,83.3486-18.8191,153.7651-79.4895,211.3711-3.3169,3.1488-6.6381,6.293-9.9572,9.4395-56.6147,43.6187-120.0049,64.9045-191.8501,57.7907-5.8521-.5797-9.3574,2.3352-13.3713,5.2364-21.5717,15.5902-45.6803,24.2134-72.2454,25.356-7.7222.3322-14.4034,2.4785-21.3415,5.7327-47.986,22.5074-95.861,24.0049-143.0675-2.3401-4.3153-2.4082-8.43-3.0105-13.0987-3.0032-49.8.0779-99.6.1323-149.3997.0181-17.1281-.0392-34.0479-.2566-50.6068,5.9899-8.4601,3.1914-18.0246,3.0496-27.2303,3.7837-19.4692,1.5522-38.0674-5.1095-57.3513-5.013-32.6978.1634-65.1951-2.7353-97.4516-7.9745-81.5217-13.2402-155.691-41.3891-211.999-105.3983ZM876.2533,185.5497l2.4441-2.7907-.0287.0528c10.9911-9.3916,9.6011-23.3068,12.9651-35.485,0,0,.0042-.9289.0041-.9289,4.0059-11.4952,8.0118-22.9904,12.7267-36.5202-7.1035,4.0736-11.3249,7.3449-14.5641,11.7959-.7105.0649-1.1669.4394-1.3692,1.1236-2.2185.8325-4.0024,2.1378-4.8521,4.4596l-.2242.2011c-2.3875.797-4.1582,2.2757-5.1293,4.6388l-.0535.052c-.8484.808-1.6969,1.6159-2.5454,2.4239,0,0-.014.0091-.014.009-.848.8292-1.6959,1.6583-2.5439,2.4875,0,0,.0155-.0163.0155-.0162-.8835.8206-1.767,1.6412-2.6505,2.4618l.0769-.0738c-.8858.8396-1.7714,1.6791-2.6572,2.5186,0,0,.0791-.0762.0791-.0762-.907.8887-1.8139,1.7774-2.7209,2.666-.7696.7062-1.5393,1.4124-2.3089,2.1186-.8762.9274-1.7524,1.8547-2.6286,2.7821l.0418-.0594c-.8608.8594-1.7216,1.7188-2.5825,2.5783l.1019-.1056c-.8727.8724-1.7454,1.7448-2.618,2.6172,0,0,.1033-.1061.1032-.1061-.8401.8819-1.6801,1.7637-2.5202,2.6457,0,0,.0376-.0424.0376-.0424-.8479.8582-1.6958,1.7164-2.5437,2.5746l.0519-.0536c-.8488.8632-1.6976,1.7265-2.5464,2.5898l.0641-.0631c-.8474.8962-1.6949,1.7923-2.5424,2.6885-.78.8022-1.5599,1.6044-2.3399,2.4066-.7945.8899-1.589,1.7798-2.3835,2.6698,0,0-.1045.1071-.1046.1071-1.9706,2.0538-3.9412,4.1076-5.9118,6.1614l-.4857.5615-1.8414,2.3706s-.0763.1636-.0763.1635c-.9391.935-1.8782,1.87-2.8173,2.805-1.2132,1.1403-2.5435,2.18-3.6229,3.4354-79.4411,92.3837-133.0739,197.9346-161.0849,316.4713-4.1913,17.7364-8.7035,35.4918-10.0164,54.665,27.8887-8.4094,54.8689-15.713,82.2846-21.1874,6.3229-1.2626,7.4866-4.5383,8.1875-10.207,2.5632-20.7334,5.0064-41.5329,8.894-62.0423,18.2373-96.2143,54.7065-184.7843,112.2842-264.3378l2.5372-3.3799s-.1458.188-.1458.1881c.7648-.9714,1.5296-1.9429,2.2944-2.9144l-.0347.0532c1.0864-1.4713,2.1727-2.9426,3.2507-4.4203.7309-.9563,1.4618-1.9125,2.1927-2.8688l-.1283.1352ZM1456.0841,348.1227c-.5213-1.0418-1.0425-2.0836-1.5636-3.1255l-.0296-.1387c-1.6759-5.4057-4.1351-10.3718-8.1245-14.4794l.0218.0228c-.0527-2.1123-.7367-3.8761-2.7184-4.9234l.0143.0325c-.7144-1.2407-1.4287-2.4814-2.1432-3.7221.1424-.5765-.067-.9615-.6284-1.1551-.5834-3.2448-2.1835-5.8751-4.7774-7.9048-32.4604-55.1606-74.1015-102.1639-125.1324-140.824-.9924-.7538-1.9848-1.5076-2.9772-2.2614l.0438.028c-2.4599-1.8085-4.9199-3.617-7.3798-5.4254l.2047.1929c-.9807-.7678-1.9615-1.5357-2.9422-2.3034-.9922-.7252-1.9845-1.4505-2.9767-2.1757-1.4966-1.0177-2.9934-2.0354-4.4901-3.0532l.1458.1137c-11.1335-9.363-23.5892-16.4146-37.0863-21.5133,8.6063,8.1912,17.2125,16.3824,25.8189,24.5736,7.7427,9.0967,15.9787,17.6914,23.527,27.0491,47.5089,58.8979,81.987,124.5995,105.3541,196.3244,23.4172,71.8791,35.2631,145.892,40.2443,221.1407.348,5.2571-.3321,10.1982,6.0833,13.6189,20.5829,10.975,40.706,22.8126,61.0063,34.3173,1.0552.7593,2.1103,1.5185,3.1656,2.2779l-.0058-.0021c3.1515,3.1586,6.4468,6.0606,12.2139,7.1094-.1946-27.3209-1.6346-53.6992-5.3319-79.9533-.341-1.8093-.6819-3.6187-1.0227-5.428-4.2644-44.0492-13.1335-87.1027-27.8723-128.8869.2842-.594.1496-1.0694-.4038-1.4262.1513-2.3826.0777-4.6959-1.9753-6.3981.295-.5091.1743-.8849-.3618-1.1272-1.7346-7.8506-3.5613-15.6688-7.9471-22.5866-.654-1.7463-1.3081-3.4924-1.9621-5.2387-1.2443-6.6909-3.5305-12.9671-7.4054-18.6113.1987-.598.0133-1.032-.5561-1.3021-1.781-7.4599-4.7752-14.3785-9.2171-20.6508l.0239-.03c-.166-2.2757-.7515-4.3507-2.752-5.7483.2519-.5327.1159-.9338-.4081-1.2032-.4589-1.0503-.9176-2.1006-1.3764-3.1509l-.2683-.4523c-.9557-1.7992-1.9117-3.5983-2.8676-5.3974.2099-.5169.0495-.8614-.4812-1.0335.0258-2.1395-.7647-3.8533-2.6155-5.0139l-.0673-.1548ZM1262.6623,265.359l-.0166-.0385c.0918-2.1155-.6039-3.8524-2.4272-5.0468l-.0094-.0217c.1004-2.1288-.5413-3.9011-2.4363-5.0714l-.0043-.026c-3.5381-11.5297-10.0504-21.4476-17.8686-34.9106,0,8.4192-.0661,13.1771.0107,17.9326.5142,31.77,1.2334,63.538,1.5307,95.3099.1936,20.7041-5.1151,25.6403-26.1792,25.683-1.6728.0034-3.3456-.0066-5.0184-.0091-28.777-.0445-29.0163-.0617-31.0924,28.7864-3.1504,43.7762-5.9493,87.5778-8.8378,131.3726-.3167,4.8046-1.8123,10.0392,5.8671,11.2323,46.2586,7.1869,91.471,19.0491,136.6606,30.9874,14.7069,5.5273,14.6585,5.5269,14.7861-10.2209.2645-32.6217-2.1908-65.0521-7.2503-97.2592-10.0153-63.755-27.6436-125.2444-55.3756-183.6727.1765-2.1206-.5277-3.8315-2.3392-5.0271ZM744.852,1807.9714s-.0722-.0523-.0719-.0526c4.0297,15.0721,8.6877,29.8835,17.7853,42.8523,19.4587,41.2271,51.5805,67.5952,95.3574,79.1036,17.9896,4.7293,28.7113-5.9755,27.0788-24.4734-.7843-4.4355-1.5459-8.8753-2.3594-13.3055-.8361-4.5531-.1842-8.3949,5.1252-9.4582,5.0006-1.0019,7.7223,1.6738,8.9921,6.2603,1.3112,4.7363,2.6484,9.4653,3.9743,14.1974.544,10.4395-1.0742,20.4739-6.4658,29.9398,32.5263.805,41.2774-6.8575,38.1821-32.6656-.2813-8.8724-4.1769-16.7154-7.1612-24.801-1.5517-4.2039-.4107-7.6619,3.2202-9.5254,4.3446-2.2297,8.1357-.5459,10.1773,3.9193,2.3869,5.2203,4.4636,10.5824,6.6749,15.8829,1.7886,10.4975,3.9312,20.9588,2.444,32.1793,21.3252-12.5089,25.3594-26.8357,13.3462-45.0227-12.3246-25.4786-24.6492-50.9573-36.9738-76.4359-12.1394-34.1787-24.2789-68.3575-36.4183-102.5362-1.8158-6.3422-3.4822-12.7323-5.4932-19.0121-1.713-5.3492-3.7489-11.1003,3.3753-13.5072,7.031-2.3757,9.0841,2.9976,10.7179,8.6037,3.1196,10.7051,6.5908,21.3076,9.9162,31.9527,19.5139,58.2334,40.529,115.8224,71.5066,169.2269,4.2854,7.3876,5.3869,15.6318,4.4481,24.262-1.1787,10.8366-7.5968,18.9908-14.3281,27.7159,6.8811,1.4252,12.5855,1.4207,18.3079.1901,40.2677,1.0497,80.5357,1.0532,120.8036.0152,3.5687.3915,10.1054,3.158,6.1339-4.6181-8.1102-15.8798-3.6303-29.8951,4.4781-43.8123,1.9256-2.6915,4.0468-5.2651,5.7478-8.0915,36.2982-60.3135,65.2324-123.6431,78.7412-193.2356.9806-5.052,2.9812-9.4775,8.5289-8.6757,6.2036.8964,7.2636,6.0026,6.157,11.5841-1.2113,6.111-2.3866,12.229-3.5777,18.344-8.8164,35.0458-21.395,68.7812-35.5252,101.976-13.7869,29.4081-29.8689,57.5931-45.7722,85.8731-14.9271,19.5799-8.4354,38.1129,17.9543,47.9909-4.9972-10.5415-.6073-20.1837.1693-30.0078,3.9414-5.8059,7.8136-11.6603,11.8474-17.4014,2.8019-3.9879,6.8127-5.3387,10.8524-2.536,4.1787,2.8988,3.773,7.2221,1.1,11.0903-4.0154,5.8113-8.823,11.1724-9.4422,18.6823-6.4627,22.3048,7.0616,35.2148,37.1128,34.6515-7.1165-10.1857-6.6355-21.0425-3.8972-32.1172,2.9491-5.3908,5.7763-10.8532,8.8869-16.1492,2.3708-4.0362,5.3325-8.1571,10.7825-5.398,5.8007,2.9368,5.2079,7.6283,2.1821,12.5274-1.062,1.7194-1.7245,3.6857-2.5694,5.5392-12.0353,20.7143-7.6975,29.5648,15.8123,32.4526,4.6411.57,9.115.3518,13.6281-.9649,41.4057-12.0813,72.2343-36.9598,91.7369-75.5999,12.6371-18.0197,18.7049-38.7728,24.7155-59.539,1.5997-5.5269,1.9802-13.013,10.3058-10.9732,8.3784,2.0526,5.3917,9.222,4.0321,14.5801-5.3471,21.0747-13.1941,41.2371-23.1548,60.5702-10.4846,18.1841-22.7017,35.0954-41.0063,51.5362,18.8103-2.5236,32.2867-8.0349,44.4572-16.2585,50.6667-34.2356,69.6113-86.561,80.9074-143.1378,6.3893-25.5953,10.0873-51.5333,9.9308-77.9622,4.0612-30.8817,1.8511-61.7172-.6813-92.5505-.8098-9.3159-1.6194-18.6319-2.4292-27.9478-2.6983-27.9822-6.2459-55.8145-14.5828-82.8037-2.2844-18.3754-6.8042-36.1354-14.5932-52.995-.7305-2.5245-1.4609-5.0491-2.1914-7.5736-.9116-8.4501-5.4769-15.6923-7.8094-23.6445-2.6724-9.1096-6.5026-12.2043-15.3257-5.9789-5.7457,4.0542-12.363,6.9685-18.8028,9.9302-185.6402,85.3792-376.2204,89.9592-570.2318,34.1024-56.4539-16.2531-108.96-41.8075-159.335-71.8222-8.5434-10.1519-17.9584-9.6147-28.1028-2.4893-5.3592,3.764-11.3044,6.7338-15.5598,11.9288-45.215,40.2832-71.5921,91.9458-89.7536,148.5715-12.6819,30.8202-18.3234,63.212-21.4638,96.1618-3.588,30.329-4.6591,60.5505,3.8511,90.364,2.8419,30.7987,14.4698,58.4499,30.307,84.5931,19.2346,34.4829,47.2863,60.277,80.553,80.626,47.5824,29.1059,100.2169,43.0883,154.9576,50.2544,17.3187,2.2671,34.672,4.7684,55.1786,4.4893-47.7954-31.4295-71.9262-75.0696-84.9592-126.0638-2.3205-9.0791-1.622-15.3166,10.1573-13.5456,1.7816,4.0274,3.5634,8.0547,5.345,12.0821.0209,2.8019-1.4551,5.9937,2.0553,7.8862ZM1420.2991,1859.5988c-7.7915,11.027-15.583,22.054-24.4332,34.5793,30.247,1.3157,58.5288-.2775,85.7341-11.0741,32.0755-7.8042,60.0478-23.4168,85.0483-44.6909,21.9741-16.1156,39.5782-36.0709,52.6919-59.971,23.2078-34.4869,33.4897-72.8741,34.4252-114.0816.0251-6.6461.0504-13.2923.0757-19.9384-.1625-1.132-.1906-3.1989-.5095-3.2449-2.1553-.3101-3.5979.9468-4.458,2.8932-24.0656,18.9019-49.3868,36.0233-74.9248,52.8373-19.367,9.9557-38.7341,19.9112-58.1012,29.8668-17.7257,6.0718-35.432,12.2009-53.1917,18.1716-4.0378,1.3574-5.9214,3.7997-6.6993,8.0122-2.4213,13.1105-5.2365,26.1484-7.8997,39.216-8.1456,22.9305-16.1967,45.8999-27.7578,67.4244ZM875.2901,204.6302c-7.9548,8.3454-14.2876,17.8641-20.0892,27.7672-35.1264,52.5335-59.6798,109.8816-77.171,170.3775-11.286,39.0346-19.259,78.7661-23.1285,119.2488-.3378,3.5348-3.7818,10.4051,5.3299,8.6145,42.337-8.3201,85.2689-11.942,128.1134-16.2564,6.4466.5309,11.9583,1.4227,12.5124-8.5297,2.8117-50.4949,6.2436-100.956,9.6732-151.4143.4208-6.1917-.9092-9.2548-7.7911-9.4103-8.3366-.1884-16.6513-1.3743-24.974-2.1454-16.8258-1.5589-23.5722-10.2564-20.5531-27.0747,6.5631-36.5608,13.3077-73.089,19.9639-109.6328.1574-1.3706.7223-3.8177.406-3.9374-2.078-.7865-1.8095,1.2584-2.2919,2.393ZM1725.9026,757.1423c-.5594-.8473-1.1187-1.6947-1.6782-2.5421,4.3703-9.2259,12.4464-16.303,16.2891-27.7142-11.0291,2.969-20.8592,5.6152-30.6894,8.2614-.281-.7896-.5619-1.5792-.8429-2.3688,4.5445-3.0855,9.0888-6.1709,15.5656-10.5684-12.5508-1.7922-22.8641,2.0254-34.3223-.6641,7.63-3.3301,14.7762-3.4522,21.134-8.5653-38.8616-3.9921-75.7145-.7059-113.4036,8.213,7.0613,8.6037,13.116,15.9337,19.1148,23.3092,3.1369,3.8568,7.3403,7.7812,3.928,13.2129-3.4788,5.5379-9.0408,2.8962-13.7273,2.0365-13.0095-2.3864-25.6479-6.8504-39.9325-7.5594,9.7379,26.5951,19.1528,52.3085,28.5676,78.0217,6.4552,26.885,12.9104,53.77,19.3658,80.655,1.908,14.2658,3.8159,28.5315,6.0077,44.9181,58.561-59.2464,95.2793-127.9229,117.7249-207.941-5.9087,4.1922-9.5049,6.7439-13.1013,9.2955ZM353.6662,649.3202c-.2993-.8831-.3603-2.2034-1.7733-1.4193-.1909.1061.4236,1.6633.6651,2.5485,12.3809,82.1744,44.0507,155.8058,97.9845,222.2813,4.039-15.5948,7.5313-29.0787,11.0235-42.5626,10.653-27.3199,21.3059-54.6397,31.9589-81.9596,13.9511-28.0679,27.9022-56.1358,41.2556-83.0009-19.9413,0-39.5143-.0127-59.0873.0111-3.7722.0046-7.7837.4937-9.6095-3.9209-1.9314-4.6699.3884-8.0408,3.9215-10.7744,6.4899-5.021,13.046-9.9563,19.8556-15.1412-25.9339-12.654-88.8724-23.4986-106.0699-18.483,4.8813,4.1962,12.6125,3.5729,17.4313,10.4513-11.0809-1.9617-21.0291-3.7229-32.3636-5.7294,5.7944,5.9608,10.3172,10.6134,14.8398,15.2661-.5144.4951-.9966,1.0198-1.4466,1.5742-9.6539-4.0345-18.4743-10.4736-29.7301-11.0597,1.8888,10.8631,11.8906,17.9099,10.9637,29.9721-3.7302-3.0603-6.7741-5.5575-9.8193-8.0536ZM622.1249,566.9552c14.4495-1.8616,22.4252-7.8197,25.1577-24.359,19.0422-115.2537,63.8719-219.9403,132.4678-314.4666,32.7577-45.1406,70.3848-85.8046,112.4219-122.8277-13.6218,5.0565-26.9019,10.7349-39.9328,16.9366-2.9043,1.3822-7.9197,1.6609-7.2264,7.1159-4.3643-.3116-8.0563,1.3272-11.7485,3.524-20.5002,12.1972-40.3736,25.3321-58.6608,40.6598-112.9194,94.6447-177.8796,217.1061-207.8883,359.6584-4.1596,19.7598-7.3181,39.7602-7.8956,61.1581,22.1209-9.5743,42.7129-18.4869,63.3049-27.3996ZM528.2792,1239.1852c46.975,61.9622,107.498,107.1586,176.5835,141.3458,90.032,44.5525,185.8477,67.389,285.7818,73.7933,123.3201,7.9029,242.849-8.1393,356.5865-58.3892,49.5513-21.8921,95.5219-49.6822,134.5818-87.8485,7.1033-6.5627,15.0215-12.2947,20.6976-20.3161,47.9455-48.9583,78.6822-107.2944,95.1741-173.5553,1.8519-7.4411.1965-9.2847-7.057-10.1935-30.7888-3.8577-61.56-5.9153-92.5329-2.4844-5.6923.6306-13.1824,2.0531-13.744-6.3329-.5394-8.053,6.7933-7.9926,12.6743-8.6096,24.6305-2.5845,49.2087-1.4561,73.8803-.1502,10.6675.5645,24.6273,9.5021,31.4059-.4645,5.8348-8.5796,3.5225-22.6142,5.1249-34.1936.8187-5.9173-1.3088-8.4859-7.2498-8.6513-13.3627-.3722-26.7184-1.3988-40.0777-1.4127-21.3222-.0221-42.6003,1.311-63.7601,4.0657-5.4128.7046-10.7368.511-12.123-5.6726-1.2719-5.6721,2.9091-8.1457,8.077-8.8356,5.3808-.7183,10.7523-1.5708,16.1561-2.04,30.4474-2.6436,60.9274-3.7789,91.4278-1.0225,5.8133.5254,9.6012.0974,9.5374-7.3418-.2294-26.7404-.3279-53.4637-5.9807-79.7878-4.2556-45.1203-16.0628-88.4322-31.349-130.9111-4.7285-18.2382-12.7197-35.2872-19.1272-52.9127-2.7441-7.5479-6.9871-10.7453-15.0376-12.3665-195.2753-39.3232-392.3627-64.4558-591.1935-75.9664-57.1381-3.3079-114.2851-6.8319-171.5724-6.2576-57.6865-1.7565-115.375-1.8986-173.0658-.2151-13.7499.0088-27.503.1876-41.2481-.0658-4.8193-.0888-7.5414,1.7027-9.8185,5.8798-10.5642,19.3792-21.7365,38.436-30.3504,58.8198-15.7959,29.3516-27.9434,60.2918-38.6914,91.7271-8.5807,25.0967-17.4163,50.2435-20.2908,76.8976-5.3063,15.1011-6.8034,30.9389-8.7408,46.6537-3.6969,29.9861-4.7971,22.8908,20.6216,26.0307,22.0038,2.7181,43.8216,6.2728,65.4434,11.0887,4.2037.9363,8.2321,2.7142,8.8059,7.6796.2866,2.4807-.8855,4.9913-3.3036,6.3053-4.0612,2.2069-8.2641.7599-12.2601-.1601-24.0808-5.5446-48.5139-8.6132-73.0393-11.3484-8.1021-.9035-10.5608,1.5811-10.1666,9.237.5374,10.4316.8222,20.8966.6518,31.3379-.1419,8.6972,2.6029,11.9096,12.2079,12.3094,25.4543,1.0592,50.841,3.7064,75.8751,8.9851,5.3893,1.1364,10.5478,2.4631,9.736,8.9052-.9635,7.6458-7.1621,7.0381-12.7007,5.8136-22.1102-4.8884-44.619-6.6165-67.0823-8.7361-16.0232-1.5121-16.1029-1.432-13.7955,14.8004.2353,1.6547.5464,3.2984.83,4.946,10.7601,62.493,35.418,118.9643,73.498,169.62ZM1224.1914,225.266c-2.2065-43.4495-7.4415-86.4941-16.6552-129.0542-1.4557-6.724-5.1292-9.6096-11.2284-11.7093-83.0666-28.5968-167.6572-31.6879-253.4678-15.6822-3.8123.7111-7.5174,1.1535-9.2006,5.2795-12.5785,30.835-24.4196,61.9101-30.6715,94.7926-.7571,1.8955-1.7318,3.7346-2.2394,5.6948-11.8392,45.7314-20.2699,92.1426-28.3525,138.6552-1.9244,11.074-.185,14.7275,11.4754,15.4141,37.5522,2.2109,75.0199,5.8174,112.5584,8.3094,73.0205,4.8475,146.1211,7.6555,219.3196,7.7389,7.7079.0088,11.3991-1.8021,11.4097-10.4106.0446-36.3771-.79-72.7169-2.9476-109.0281ZM858.2806,532.2829c-1.7712.2795-3.5424.5589-5.3137.8384-1.0487.1911-2.0974.3823-3.1461.5734-37.9679,2.2611-75.3299,8.6957-112.408,16.8007-33.2623,7.271-66.6158,14.3596-98.0176,28.1644-2.939.3895-6.1735-.1312-8.3195,2.7009-.6244-.2644-1.1009-.1-1.4296.4929-46.8453,15.0143-89.7438,37.5918-129.4935,66.5833,368.342-12.691,732.6877,15.1887,1096.1049,93.695-6.6167-7.1612-10.6831-11.786-14.984-16.1813-32.4348-33.1467-69.7599-59.7836-110.2046-82.1638-6.3936-3.538-12.1204-8.8867-20.089-9.0485-9.0278-5.7332-18.2288-11.0447-27.9974-15.5578-53.2107-24.5835-108.6514-42.605-165.3496-57.0074-23.8683-6.0629-48.1051-10.1591-72.5377-13.142-9.563-5.4281-18.0869-8.3637-26.6325,2.9421-7.7121,10.203-19.5633,14.3979-32.3417,13.6169-61.7976-3.777-123.5779-7.8374-185.3631-11.8165-10.8489-.6986-22.3658-3.5426-27.66-12.5738-8.3626-14.2657-19.8613-12.3493-32.3409-10.9403-7.473.8438-14.983,1.36-22.4764,2.0235ZM1439.6637,610.3334c-13.5533-186.387-63.478-354.5498-208.894-483.3409-1.4536,29.7791,7.6819,70.3531,20.0116,92.8611,6.0163,10.9827,11.7948,22.1203,17.1316,33.4466,45.9175,97.4483,71.3762,199.4897,68.5916,307.7955-.111,4.3153-.697,8.3088,4.7216,10.0593,32.9324,10.6382,64.8516,23.9082,98.4377,39.1784ZM916.566,483.2815c-2.3659,47.4056,4.0061,54.3026,37.1916,56.366,56.3177,3.5015,112.6186,7.2807,168.9165,11.0891,17.9248,1.2125,31.0701-8.1621,32.2962-25.416,3.7328-52.5302,6.689-105.1152,10.1878-157.6628.4305-6.4677-1.2409-8.8299-8.0455-8.9059-74.0111-.8258-147.8375-5.6476-221.6294-10.9586-7.4967-.5396-10.042,1.3778-10.5099,9.1038-2.8297,46.7208-6.1695,93.4108-8.4073,126.3844Z"/><path class="cls-1" d="M529.1421,1830.2438c56.308,64.0092,130.4774,92.1581,211.9991,105.3983,32.2565,5.2392,64.7538,8.1379,97.4516,7.9745,19.2839-.0964,37.8821,6.5653,57.3513,5.013,9.2057-.734,18.7703-.5922,27.2303-3.7837,16.5589-6.2466,33.4787-6.0292,50.6068-5.9899,49.7997.1142,99.5997.0598,149.3997-.0181,4.6687-.0074,8.7834.595,13.0987,3.0032,47.2066,26.345,95.0815,24.8475,143.0675,2.3401,6.9381-3.2541,13.6193-5.4004,21.3415-5.7327,26.565-1.1426,50.6737-9.7657,72.2454-25.356,4.0139-2.9012,7.5192-5.8161,13.3713-5.2364,71.8452,7.1138,135.2354-14.172,191.8501-57.7907,35.9298,7.2079,71.9161,14.3356,105.1672,30.5866,6.2378,3.0487,12.1367,7.4054,17.1277,12.2539,8.541,8.2964,5.7113,22.6478-5.861,31.1302-16.3961,12.0182-35.6019,18.4281-54.8004,23.235-20.4807,5.1279-40.8341,10.9611-61.7775,14.5589-44.5955,7.6611-89.1787,14.7769-134.2337,19.6279-37.1537,4.0004-74.3758,7.4118-111.5257,11.4738-19.0307,2.0807-38.2591,1.1408-57.4426,2.6555-45.7056,3.6092-91.6549,3.659-137.4292,5.9228-78.1887,3.8669-156.3504,2.0626-234.4823,1.4365-50.403-.4037-100.9786-1.7934-151.2658-5.0748-64.6469-4.2183-129.3058-8.9121-193.8173-15.9612-50.444-5.5121-100.6053-12.3481-150.3477-21.6327-34.2203-6.3876-68.5546-14.2655-99.7786-31.0922-17.7668-9.5743-23.4241-22.9256-14.6418-34.6652,5.0868-6.7997,11.985-12.5905,19.3934-15.4924,36.4529-14.2787,73.9121-25.0348,112.7056-31.503,33.5944-5.6014,67.1397-11.3183,100.9804-15.2129,1.0704-.1233,2.0135-1.3539,3.0159-2.0681Z"/><path class="cls-6" d="M1502.5086,1287.7732c-5.6741,8.0186-13.5924,13.7507-20.6956,20.3134-4.5308-.9153-7.7751,1.1231-11.3019,3.8574-8.5285,6.6119-17.2265,13.0918-26.3607,18.8205-35.4151,22.2107-73.2295,39.9462-112.2852,54.27-37.7873,13.8589-77.1149,22.8022-116.919,29.9442-37.3073,6.6942-74.8118,11.0131-112.4802,12.9785-38.2698,1.9968-76.603-.1883-114.7983-4.4263-37.1388-4.1206-74.2138-8.3529-110.6457-16.983-33.5452-7.9463-66.5711-17.2607-99.0718-29.1335-43.2039-15.783-84.112-35.8924-123.5528-59.134-18.1522-10.6968-35.7727-22.5129-52.5807-35.2153-18.4718-13.9597-35.6322-29.6262-50.0841-47.9494,4.0181-1.077,8.0471-2.115,12.0525-3.2371,42.3933-11.8763,73.0529-37.2411,88.9722-78.7834,13.287-34.6735,15.6652-70.4458,8.5859-106.8676,15.5167.7169,30.5873,5.4885,46.2273,5.0844,21.4567,13.2055,44.1997,21.3228,69.976,19.1223,31.5576-2.6935,55.8111-18.2161,75.7541-41.7624,28.9157-9.417,52.3601-27.6231,74.0572-47.8985,46.3189-43.2835,75.5552-97.3906,95.9911-156.6331,6.9812-20.2382,12.8073-40.8747,19.7284-63.1557,3.4235,27.8196,5.8923,53.5075,10.5677,79.0284,10.8493,59.2207,32.4794,113.1502,74.4958,157.2203,7.9787,8.3687,15.0858,19.2179,28.0414,21.7385,1.3606,3.9442,2.606,7.9326,4.0994,11.8258,14.6856,38.2765,42.0085,61.7361,82.5967,68.1821,32.0386,5.0882,60.0811-5.3713,84.943-25.3965,16.0199.1975,32.0398.3949,48.0597.5925-15.4962,24.1189-17.8756,50.9629-15.2951,78.4496,4.6283,49.2968,26.3297,88.0814,70.4853,113.16,22.3341,12.6849,46.7696,17.4539,71.4371,21.988ZM1001.3058,1086.1559c-1.6217,7.7845,2.7499,16.8184-4.2906,23.7367-10.8793,10.6902-23.1281,19.0734-39.0622,14.2477-14.2739-4.3228-18.4296-16.9435-20.3736-30.3382-.2402-1.6557-.6717-3.3027-.7233-4.9627-.1519-4.9017-2.3725-8.3285-7.4232-8.1327-5.9897.2323-7.2534,4.6313-6.8843,9.8119,1.3381,18.7852,6.6898,35.8377,24.5536,45.1242,17.9076,9.3093,35.3404,4.9992,50.3399-6.8555,6.884-5.4408,9.6222-4.644,15.317,1.2694,13.3054,13.816,30.1001,17.699,48.3693,11.807,18.376-5.9263,28.3126-19.847,32.7205-38.0401,1.1915-4.9175,2.0743-10.6465-4.7527-12.2702-6.5685-1.5619-8.7658,3.0527-9.7231,8.5325-1.5702,8.9895-5.6194,16.66-12.8765,22.249-10.9589,8.4398-22.9809,9.6928-35.2317,3.3308-11.3642-5.9013-15.6694-14.9585-15.8264-28.5298-.2202-19.0622,4.8047-34.9332,17.276-49.0478,4.9534-5.6061,9.1104-11.9791,13.1657-18.3007,6.2984-9.818,3.8258-19.1688-6.6943-23.6129-18.062-7.6297-36.7165-7.7835-55.1053-1.4847-10.1982,3.4933-13.3007,12.8852-7.9543,22.371,4.9125,8.7159,10.1701,17.322,16.1301,25.3416,7.5632,10.1765,12.4265,20.7032,9.0493,33.7535Z"/><path class="cls-8" d="M707.5705,1051.312c-15.6399.4041-30.7106-4.3675-46.2243-5.0826-14.1174-41.7523-44.6573-66.7896-84.127-82.844-41.4079-16.8428-85.1119-29.8382-114.3202-67.4038-.1936-.2489-.7916-.1832-1.2007-.2645,2.8745-26.6541,11.7101-51.8009,20.2908-76.8976,10.748-31.4354,22.8954-62.3755,38.6914-91.727,6.0146,1.6228,11.4602-1.6472,17.2471-2.0041,40.684-2.5097,81.3402-5.6871,122.0584-7.3574,36.2573-1.4876,72.558-.7128,108.8787-2.2402,54.1574-2.2775,108.3487,1.1237,162.5246,3.9479,29.927,1.5601,60.0226,1.7237,90.0074,3.2049,23.2373,1.1478,46.5646,2.3431,69.5926,5.443,39.479,5.3141,79.164,8.718,118.6575,14.0025,34.5242,4.6194,69.2104,8.4469,103.6037,13.899,38.8776,6.1628,77.4713,14.1774,116.0996,21.8354,35.7256,7.0824,71.3601,14.4834,106.6007,23.9624,11.7952,3.1726,23.3303,9.089,36.1435,8.3909,15.2862,42.4789,27.0934,85.7909,31.3487,130.9085-5.8481.5889-9.9546,4.2065-13.4921,8.3395-26.0263,30.408-60.1582,48.5191-96.9487,61.3441-42.6365,14.8628-85.4465,28.6257-117.1208,63.4067-16.0199-.1976-32.0398-.3951-48.0628-.5904,1.839-2.2188,3.5926-4.5211,5.5364-6.6493,36.1317-39.5612,36.0568-99.1395-.199-139.0409-35.2071-38.7472-95.5505-44.3362-137.5189-12.1551-34.1253,26.1673-44.8702,61.723-39.4546,103.2318-12.9557-2.5206-20.0628-13.3698-28.0414-21.7385-42.0165-44.07-63.6465-97.9995-74.4958-157.2203-4.6754-25.5209-7.1441-51.2088-10.5677-79.0284-6.9211,22.281-12.7472,42.9175-19.7284,63.1557-20.4359,59.2425-49.6723,113.3496-95.9911,156.6331-21.6971,20.2753-45.1415,38.4814-74.059,47.9006,1.9696-3.6477,3.9064-7.3168,5.9181-10.9444,20.2939-36.5947,15.8011-84.0247-10.9331-115.2823-28.694-33.5491-72.8818-45.6683-113.7086-31.1861-40.086,14.2194-67.005,52.2556-67.8586,94.9897-.7066,35.3788,15.0083,62.5816,40.8539,85.0611Z"/><path class="cls-6" d="M906.2755,1702.067c-3.3253-10.6451-6.7966-21.2476-9.9162-31.9527-1.6338-5.606-3.6869-10.9793-10.7179-8.6037-7.1242,2.4069-5.0884,8.158-3.3753,13.5072,2.011,6.2798,3.6773,12.6699,5.4932,19.0121-12.3478-6.0154-24.883-11.6767-37.0124-18.1037-75.3647-39.9332-134.5337-96.0864-172.5263-173.2488-15.1887-30.8478-24.7702-63.5696-31.933-97.0715.2432-.8748.4835-1.7502.7236-2.6254,3.3915.0753,6.2868,1.2674,9.3974,2.7838,17.9058,8.728,35.7205,17.7568,54.1229,25.3308,53.8766,22.1748,109.1601,39.5462,166.4559,51.1322,44.467,8.9917,89.1653,16.6793,134.27,18.2345,46.6225,1.6076,93.4055,2.3577,140.1924-1.3359,39.0402-3.0823,77.4384-8.7294,115.2562-18.4082,40.0116-10.2404,78.7892-23.787,115.1365-43.9324,10.4052-5.7672,19.3479-14.7309,31.9488-16.2594.7305,2.5245,1.4609,5.0491,2.1922,7.5762-1.9501,1.23-2.5126,3.1586-2.6357,5.2893-1.4798,25.5961-5.3259,50.8216-11.836,75.6303-8.6529,11.2026-18.967,21.6116-17.892,37.4601.3354,6.4692-1.7573,12.3751-4.9052,17.7804-38.007,65.2619-94.3231,107.4016-165.4915,130.7097,1.1909-6.115,2.3662-12.2329,3.5775-18.344,1.1066-5.5815.0466-10.6877-6.157-11.5841-5.5478-.8018-7.5483,3.6238-8.5289,8.6757-13.5088,69.5925-42.443,132.9221-78.7412,193.2356-1.701,2.8264-3.8222,5.4-5.7478,8.0915-1.079-3.2437-3.5237-4.5491-6.7307-4.4567-31.6302.9102-63.3679-2.6018-94.8986,1.995-17.7336,2.5854-21.8357,1.1414-30.1168-14.0852-25.3642-46.6372-50.5878-93.3365-68.8743-143.4111-1.804-4.9401-1.4483-13.4895-10.7296-13.0216Z"/><path class="cls-8" d="M646.2846,1405.6056c7.1657,33.5022,16.7473,66.224,31.936,97.0718,37.9926,77.1624,97.1616,133.3156,172.5263,173.2488,12.1295,6.427,24.6647,12.0884,37.0124,18.1037,12.1394,34.1787,24.2789,68.3575,36.4208,102.538-5.394.2882-10.8045.9793-16.1845.7921-26.133-.9093-51.3882,3.2353-76.014,11.9944-19.3354,6.8776-36.4603,17.747-53.6536,28.5661-10.4172-2.76-15.2233-11.7065-21.5463-19.1277-3.4692-4.0717-4.2422-11.4597-12.0018-10.8739,0,0,.0722.0523.0725.0518.2054-2.8609.7377-5.8069-2.0556-7.8857-1.7816-4.0274-3.5634-8.0547-5.3449-12.0821-4.0598-4.8925-8.1197-9.7851-13.1982-15.9051-3.4951,15.8506-5.6575,29.9468-3.337,44.5077,2.9244,18.3501,4.7807,36.838,8.7826,55.0688,1.1937,5.438,8.7597,11.2413,2.4654,17.0338-5.47,5.0343-11.8256-1.1167-17.999-.815-36.99,1.8086-68.2247-15.4708-98.1255-33.3404-24.9977-14.9393-44.8452-37.118-64.0746-59.1841,20.5276.4138,40.6901-1.2991,60.4415-7.7241,28.4509-9.2548,53.0731-24.113,72.6201-46.9389,4.9844-5.8205,6.8589-12.866,3.8154-19.8803-3.1959-7.3656-9.9752-9.04-17.7616-8.921-13.3671.2044-26.4845.6752-39.6731,4.0178-42.4481,10.7583-84.161,7.9008-124.7268-9.0434-7.0528-25.4754-10.1913-51.5918-12.7021-77.8106,30.5525,5.4768,60.408,2.5094,89.7562-7.2156,21.8592-7.2432,42.8936-16.3241,60.4863-31.4011,11.1532-9.5583,9.3738-16.5115-4.7574-20.9888-8.6342-2.7355-17.7425-4.2943-26.7574-5.4483-27.3762-3.5042-54.1469-8.1776-77.5807-24.5835-8.7295-6.1113-14.8561-16.0626-26.2559-18.307,18.1615-56.6257,44.5386-108.2883,89.7537-148.5714,16.293,10.4322,35.7281,16.3339,47.6608,33.053Z"/><path class="cls-10" d="M852.967,533.1212c1.7712-.2794,3.5424-.5588,5.3137-.8383,8.3998,3.7165,17.2348,1.3043,25.852,1.6471,5.8917.2343,8.8144,1.4142,9.4424,8.2882,2.0632,22.5873,7.3206,27.7271,29.7196,29.4879,28.9293,2.2741,57.2933,8.4034,86.2657,11.1211,45.2251,4.2421,90.3358,6.7964,135.6763,6.4915,16.0659-.1081,25.8167-8.876,29.6391-24.7533,1.4795-6.1452,2.8134-13.0075,10.2195-15.5344,24.4326,2.9828,48.6695,7.0791,72.5377,13.142,56.6983,14.4024,112.1389,32.4238,165.3496,57.0074,9.7686,4.5131,18.9696,9.8246,27.9976,15.5578,2.6062,7.8615,10.6172,10.1244,16.0224,14.9985,13.3898,12.074,27.3419,23.5167,38.0635,38.1973,1.6309,2.2331,3.8694,4.9223,2.1478,7.9347-.5619.9834-3.067,1.5404-4.4718,1.2539-17.5803-3.5848-35.5352-3.5958-53.2454-5.765-28.0039-3.4299-55.8512-8.1817-83.8799-11.3582-42.1054-4.7718-84.4044-7.91-126.4463-13.145-42.0194-5.232-84.1832-9.4677-126.2499-13.7978-41.6996-4.2923-83.6446-7.3334-125.4975-10.7439-47.2628-3.8514-94.5541-7.8908-141.9155-9.8261-37.4715-1.5309-74.9262-2.8785-112.3742-5.1584-44.6805-2.7204-89.3318,2.7417-134.0423,2.3429-7.5386-.0672-14.9243,4.9283-23.5298.795,11.4347-15.5455,27.2956-24.8091,42.2212-35.1088,5.1818-3.5758,10.9483-6.3166,11.8638-13.5036.3288-.5929.8053-.7573,1.4316-.4927,3.1944.3945,6.5581,1.3158,8.3176-2.7011,31.4018-13.8047,64.7553-20.8933,98.0176-28.1644,37.078-8.105,74.44-14.5395,112.4096-16.8,1.0493-.1909,2.0969-.3826,3.1445-.5741Z"/><path class="cls-5" d="M1572.0941,810.1768c-12.8132.6981-24.3483-5.2183-36.1435-8.3909-35.2405-9.479-70.8751-16.88-106.6007-23.9624-38.6283-7.658-77.222-15.6726-116.0996-21.8354-34.3933-5.4521-69.0795-9.2796-103.6037-13.899-39.4934-5.2845-79.1785-8.6884-118.6575-14.0025-23.028-3.0999-46.3553-4.2952-69.5926-5.443-29.9847-1.4812-60.0803-1.6448-90.0074-3.2049-54.1758-2.8242-108.3671-6.2254-162.5246-3.9479-36.3206,1.5274-72.6214.7527-108.8787,2.2402-40.7181,1.6704-81.3744,4.8478-122.0584,7.3574-5.7869.3569-11.2325,3.627-17.2471,2.0041,8.6139-20.384,19.7861-39.4408,30.3503-58.82,2.2771-4.177,4.9992-5.9686,9.8185-5.8798,13.7451.2534,27.4982.0746,41.248.0658,2.6052,2.9351,6.1156,2.2083,9.3798,2.2097,51.3957.0226,102.7914.0146,154.1871-.0229,3.2715-.0025,6.7579.7195,9.499-1.9717,57.2873-.5743,114.4343,2.9497,171.5724,6.2576,198.8308,11.5106,395.9183,36.6432,591.1935,75.9664,8.0506,1.6212,12.2935,4.8186,15.0376,12.3665,6.4075,17.6256,14.3988,34.6745,19.1272,52.9127Z"/><path class="cls-10" d="M902.9678,168.8924c6.2519-32.8825,18.093-63.9576,30.6715-94.7926,1.6831-4.126,5.3882-4.5684,9.2006-5.2795,85.8106-16.0057,170.4012-12.9146,253.4678,15.6822,6.0992,2.0997,9.7727,4.9853,11.2284,11.7093,9.2138,42.5601,14.4488,85.6047,16.6552,129.054-2.6255,6.1801-5.2749,11.7925-13.174,13.3662-16.2933,3.2459-32.4289,8.5899-49.2102,6.4506-25.1651-3.2082-50.205-3.6253-75.5909-2.7482-31.1831,1.0773-62.6101,2.7384-93.7085-2.1491-26.5706-4.1759-53.5961-7.1356-77.518-20.9191-6.9289-3.9922-12.3068-9.5006-11.7506-19.0565.6054-10.3986-.124-20.8748-.2714-31.3172Z"/><path class="cls-11" d="M1375.8812,1074.1756c31.6743-34.781,74.4843-48.5439,117.1208-63.4067,36.7905-12.8251,70.9224-30.9361,96.9487-61.3441,3.5375-4.133,7.644-7.7506,13.4921-8.3395,5.6531,26.3267,5.7517,53.0501,5.981,79.7904.0638,7.4392-3.7241,7.8672-9.5374,7.3418-30.5004-2.7564-60.9804-1.6211-91.4278,1.0225-5.4038.4692-10.7752,1.3217-16.1561,2.04-5.1679.69-9.3488,3.1635-8.077,8.8356,1.3863,6.1836,6.7102,6.3772,12.123,5.6726,21.1599-2.7547,42.4379-4.0878,63.7601-4.0657,13.3593.0139,26.715,1.0405,40.0777,1.4127,5.941.1654,8.0685,2.7339,7.2498,8.6513-1.6024,11.5794.7098,25.614-5.1249,34.1936-6.7786,9.9666-20.7384,1.029-31.4059.4645-24.6716-1.3059-49.2497-2.4342-73.8803.1502-5.8811.6171-13.2137.5567-12.6743,8.6096.5616,8.386,8.0517,6.9634,13.744,6.3329,30.9729-3.4309,61.7441-1.3733,92.5329,2.4844,7.2535.9088,8.9088,2.7523,7.057,10.1935-16.492,66.2608-47.2286,124.597-95.1752,173.5566-24.6684-4.5327-49.1039-9.3017-71.438-21.9866-44.1556-25.0787-65.857-63.8632-70.4853-113.16-2.5806-27.4867-.2011-54.3307,15.2951-78.4496Z"/><path class="cls-11" d="M461.6983,895.7171c.4091.0813,1.0072.0156,1.2007.2645,29.2083,37.5656,72.9124,50.561,114.3202,67.4038,39.4696,16.0544,70.0096,41.0916,84.127,82.844,7.0763,36.42,4.6981,72.1923-8.5889,106.8658-15.9193,41.5423-46.5789,66.907-88.9722,78.7834-4.0054,1.1221-8.0344,2.1601-12.0517,3.2368-7.9586.543-16.2309-.716-23.4543,4.0699-38.08-50.6557-62.7379-107.127-73.498-169.62-.2836-1.6476-.5948-3.2914-.83-4.946-2.3074-16.2324-2.2277-16.3125,13.7955-14.8004,22.4632,2.1196,44.9721,3.8477,67.0823,8.7361,5.5386,1.2245,11.7372,1.8322,12.7007-5.8136.8118-6.442-4.3467-7.7688-9.736-8.9052-25.0341-5.2787-50.4208-7.9259-75.8751-8.9851-9.605-.3998-12.3498-3.6122-12.2079-12.3094.1704-10.4414-.1144-20.9064-.6518-31.3379-.3942-7.6559,2.0645-10.1405,10.1666-9.237,24.5254,2.7352,48.9585,5.8037,73.0393,11.3484,3.996.92,8.1989,2.3669,12.2601.1601,2.418-1.314,3.5902-3.8247,3.3036-6.3053-.5738-4.9654-4.6022-6.7433-8.8059-7.6796-21.6219-4.8159-43.4396-8.3706-65.4434-11.0887-25.4187-3.1399-24.3185,3.9554-20.6216-26.0307,1.9374-15.7147,3.4345-31.5526,8.7408-46.6537Z"/><path class="cls-8" d="M1213.2228,1694.9719c71.1685-23.3081,127.4846-65.4478,165.4916-130.7097,3.148-5.4053,5.2407-11.3112,4.9045-17.7829,2.4628,7.2973,7.8793,10.848,15.1834,12.1873,15.3348,2.8118,30.6848,5.4282,46.3563,5.2317.8098,9.3159,1.6194,18.6319,2.4298,27.9428-16.6194,7.5406-33.2148,15.1414-49.8682,22.6127-11.3178,5.0773-23.4445,8.3033-33.7562,15.6845-6.4362,4.6071-6.584,9.9168-1.2268,14.3396,25.0108,20.6494,52.7045,35.8693,85.5319,39.9188.1565,26.429-3.5415,52.3669-9.9308,77.9622-1.7212.3529-3.3647-5.8156-4.7538-.6919-7.7742,28.6765-25.3686,51.943-41.8747,75.6359-9.6391,13.8356-19.6536,28.2813-37.7299,32.9161,9.9607-19.3331,17.8077-39.4955,23.1548-60.5702,1.3596-5.3581,4.3463-12.5274-4.0321-14.5801-8.3256-2.0398-8.7061,5.4463-10.3058,10.9732-6.0106,20.7662-12.0784,41.5193-24.7149,59.5372-1.5748-1.8101-3.1506-3.6185-4.7262-5.427-.1901-4.7904-2.4738-8.7579-4.8667-12.7254-16.1907-26.8442-42.6924-37.0658-71.0347-44.9017-26.3044-7.2726-53.1284-4.4315-79.7569-5.5771,14.1302-33.1948,26.7088-66.9302,35.5252-101.976Z"/><path class="cls-3" d="M902.9678,168.8924c.1474,10.4424.8767,20.9186.2714,31.3172-.5562,9.556,4.8217,15.0644,11.7506,19.0565,23.9219,13.7835,50.9474,16.7432,77.518,20.9191,31.0983,4.8874,62.5254,3.2264,93.7085,2.1491,25.3859-.8771,50.4258-.46,75.5909,2.7482,16.7813,2.1393,32.9169-3.2047,49.2102-6.4506,7.8991-1.5736,10.5485-7.1861,13.174-13.3662,2.1576,36.3114,2.9922,72.6513,2.9476,109.0284-.0106,8.6085-3.7017,10.4193-11.4097,10.4106-73.1985-.0833-146.299-2.8914-219.3196-7.7389-37.5385-2.492-75.0061-6.0985-112.5584-8.3094-11.6604-.6866-13.3998-4.34-11.4754-15.4141,8.0826-46.5126,16.5133-92.9238,28.3525-138.6552.5075-1.9601,1.4823-3.7993,2.2394-5.6948Z"/><path class="cls-12" d="M1439.6637,610.3334c-33.5861-15.2701-65.5053-28.5401-98.4377-39.1784-5.4185-1.7505-4.8326-5.7439-4.7216-10.0593,2.7846-108.3058-22.6741-210.3472-68.5916-307.7955-5.3368-11.3263-11.1153-22.464-17.1316-33.4466-12.3297-22.5081-21.4651-63.0821-20.0116-92.8611,145.416,128.7911,195.3407,296.9539,208.894,483.3409Z"/><path class="cls-12" d="M1524.5977,576.5351c.3408,1.8093.6818,3.6187,1.0227,5.4278-2.9034,3.672-1.6391,7.9733-1.6208,11.9989.0802,17.7391,3.0126,35.2986,2.9615,53.1244-.0227,7.8884-2.8628,7.9336-8.2228,7.7207,0,0,.0058.0021.006.0022-1.0551-.7593-2.1103-1.5186-3.1657-2.2779-20.3004-11.5048-40.4234-23.3424-61.0063-34.3174-6.4154-3.4207-5.7353-8.3618-6.0833-13.6189-4.9813-75.2488-16.8271-149.2616-40.2443-221.1407-23.3671-71.7249-57.8452-137.4264-105.3541-196.3244-7.5483-9.3577-15.7843-17.9524-23.5253-27.0481,3.7563-1.0198,7.5111-2.0406,11.2657-3.0613,0,0-.1458-.1137-.1463-.1128.5728,2.3774,2.3816,2.9357,4.4905,3.0523.9922.7253,1.9845,1.4505,2.9758,2.1751.9806.7676,1.9618,1.5358,2.9431,2.304,0,0-.2047-.1929-.2053-.1912.826,4.0327,3.4491,5.6189,7.3805,5.4237,0,0-.0438-.028-.0449-.0279.9921.7538,1.9851,1.5075,2.9782,2.2612,51.0309,38.6602,92.6721,85.6635,125.1323,140.8239-.2568,3.7524-.3551,7.4094,4.7775,7.905.5614.1936.7709.5786.6284,1.1571.7143,1.2414,1.4287,2.4808,2.1432,3.7201,0,0-.0143-.0325-.0146-.0327-.2059,2.2551.4129,4.0551,2.7187,4.9236,0,0-.0218-.0228-.0228-.0228-.1774,6.4457.4868,12.4197,8.1256,14.4795,0,0,.0296.1387.0265.1412.5202,1.0426,1.0434,2.0828,1.5667,3.123,0,0,.0673.1548.0668.1537-.2277,2.2443.5206,3.9809,2.616,5.015.5308.1721.6911.5165.48,1.0361-.3528,2.4963-.7842,5.0323,2.8688,5.3947,0,0,.2683.4523.2631.4527-.6223,1.5256.0995,2.4615,1.3817,3.1506.524.2695.66.6706.4075,1.2055-.423,2.5592-.4196,4.912,2.7526,5.7461,0,0-.0239.03-.0267.0311-.9573,8.6834,2.7101,15.3013,9.2199,20.6497.5694.2701.7548.7041.5556,1.3039-.1461,7.2449.0722,14.3432,7.4059,18.6096.654,1.7463,1.3081,3.4924,1.9621,5.2385-1.6985,9.0585,2.8869,15.9061,7.9471,22.5868.5361.2423.6568.6181.3609,1.1299-.5403,2.5043-.4078,4.7979,1.9762,6.3954.5535.3568.6881.8322.4038,1.428.1239,2.4629-.1133,5.0063.4259,7.3728,6.7992,29.8398,13.5198,59.7,20.695,89.4503,2.5654,10.6364-2.4873,22.8705,6.7514,32.0621Z"/><path class="cls-12" d="M888.4314,122.7973c.2022-.6842.6586-1.0587,1.3695-1.1234,5.1998.5582,5.8485,3.1603,4.1448,7.7611-2.0001,5.4009-4.2869,10.9437-2.3077,16.9631,0,0-.0042.9289-.0062.9291-9.021,10.1123-11.5947,22.5784-12.9631,35.4847,0,0,.0287-.0528.028-.0532-.815.9301-1.6292,1.8606-2.4433,2.7911,0,0,.1283-.1352.1269-.1354-1.5954.2968-2.3833,1.2091-2.1896,2.8707-2.9513.0977-3.2964,2.1148-3.2524,4.4187,0,0,.0347-.0532.0346-.0533-.7648.9714-1.5295,1.9429-2.2942,2.9144,0,0,.1458-.1881.1443-.188-1.6653.5126-2.5099,1.6393-2.5357,3.3798-57.5777,79.5535-94.0469,168.1235-112.2842,264.3377-3.8875,20.5094-6.3308,41.309-8.894,62.0423-.7009,5.6687-1.8646,8.9444-8.1875,10.207-27.4157,5.4743-54.3959,12.778-82.2846,21.1874,1.3129-19.1731,5.8252-36.9286,10.0164-54.665,28.011-118.5367,81.6439-224.0876,161.0849-316.4713,1.0795-1.2554,2.4098-2.295,3.6241-3.4355,1.7432-.1284,2.7599-.9845,2.8161-2.8049,0,0,.0763-.1636.0783-.1617,1.691.0435,2.3947-.6774,1.8394-2.3725,0,0,.4857-.5615.4871-.5581,4.8408.6963,5.626-2.4944,5.9105-6.1648,0,0,.1045-.1071.1038-.1064.7944-.8896,1.5893-1.7801,2.3842-2.6705.78-.8023,1.5599-1.6044,2.3395-2.4061.8473-.896,1.695-1.7925,2.5428-2.689,0,0-.0641.0631-.0636.0635.849-.8631,1.6975-1.7267,2.546-2.5902,0,0-.0519.0536-.0514.0541.848-.8581,1.6956-1.7166,2.5431-2.5751,0,0-.0376.0424-.0372.0429.8403-.8817,1.6801-1.7639,2.5199-2.6461,0,0-.1033.1061-.1022.1065.873-.8722,1.745-1.745,2.617-2.6177,0,0-.1019.1056-.1008.106.8612-.8593,1.7212-1.719,2.5814-2.5787,0,0-.0418.0594-.041.0599.8764-.9272,1.7522-1.8549,2.6279-2.7826.7696-.7062,1.5392-1.4124,2.3087-2.1183.9069-.8886,1.814-1.7775,2.7211-2.6663,0,0-.0791.0762-.0786.0765.8859-.8394,1.7713-1.6791,2.6567-2.5189,0,0-.0769.0738-.0765.0742.8837-.8205,1.7669-1.6414,2.6502-2.4622,0,0-.0155.0163-.0155.0166.848-.8291,1.6959-1.6584,2.5439-2.4878,0,0,.014-.0091.0136-.0089.8484-.8079,1.697-1.616,2.5456-2.4242,0,0,.0536-.052.053-.0514,3.1824.0823,4.9405-1.4113,5.1298-4.6393,0,0,.2242-.2011.2235-.2004,2.8968-.094,4.5663-1.5248,4.8529-4.4603Z"/><path class="cls-7" d="M1413.7912,1420.5259c-12.6009,1.5285-21.5436,10.4923-31.9488,16.2594-36.3473,20.1453-75.1249,33.692-115.1365,43.9324-37.8179,9.6788-76.216,15.3259-115.2562,18.4082-46.7869,3.6937-93.5699,2.9435-140.1924,1.3359-45.1047-1.5552-89.803-9.2428-134.27-18.2345-57.2958-11.586-112.5792-28.9574-166.4559-51.1322-18.4024-7.574-36.2171-16.6028-54.1229-25.3308-3.1106-1.5164-6.0059-2.7085-9.3963-2.7815-1.5745-13.2885-3.1503-26.5791-4.7259-39.8699,50.3751,30.0147,102.8812,55.5691,159.335,71.8222,194.0115,55.8569,384.5916,51.2768,570.2318-34.1024,6.4399-2.9618,13.0572-5.876,18.8028-9.9302,8.8231-6.2254,12.6533-3.1307,15.3257,5.9789,2.3325,7.9521,6.8978,15.1944,7.8094,23.6445Z"/><path class="cls-7" d="M528.2792,1239.1852c7.2233-4.7858,15.4957-3.5269,23.4543-4.07,14.4511,18.3236,31.6114,33.9902,50.0832,47.9498,16.808,12.7024,34.4285,24.5185,52.5807,35.2153,39.4407,23.2416,80.3489,43.351,123.5528,59.134,32.5007,11.8728,65.5266,21.1872,99.0718,29.1335,36.4319,8.6302,73.507,12.8624,110.6457,16.983,38.1952,4.2381,76.5285,6.4232,114.7983,4.4263,37.6684-1.9654,75.1729-6.2843,112.4802-12.9785,39.8042-7.142,79.1317-16.0853,116.919-29.9442,39.0557-14.3238,76.87-32.0592,112.2852-54.27,9.1342-5.7287,17.8322-12.2086,26.3607-18.8205,3.5268-2.7343,6.771-4.7726,11.3019-3.8574-39.06,38.1663-85.0305,65.9564-134.5818,87.8485-113.7375,50.2499-233.2664,66.2921-356.5865,58.3892-99.9341-6.4043-195.7499-29.2408-285.7818-73.7933-69.0855-34.1872-129.6085-79.3836-176.5835-141.3458Z"/><path class="cls-12" d="M1265.0016,270.3861c27.7321,58.4283,45.3604,119.9177,55.3756,183.6727,5.0595,32.2071,7.5148,64.6374,7.2503,97.2592-.1276,15.7478-.0791,15.7482-14.7861,10.2209-3.6464-3.6945-8.3741-5.4848-13.137-6.9296-34.6167-10.5014-70.1125-17.4327-105.4744-24.671-9.8078-2.0076-10.2471-6.5527-9.3188-13.5691,4.3585-32.9418,10.8212-65.6747,9.8161-99.1345-.165-5.4871,1.9484-7.3836,7.2719-9.397,11.5513-4.369,23.284-9.1503,32.9502-17.073,11.2651-9.2333,20.9277-18.9279,20.4776-36.0674-.7879-29.9977-.8234-59.9544-4.952-89.7793-.4782-3.4525-5.9744-14.8235,7.2935-9.7634,0,0,.0043.026.004.0256-.2471,2.1991.329,4.0033,2.4366,5.0718,0,0,.0094.0217.009.0212-.2321,2.1828.3894,3.9557,2.4275,5.0473,0,0,.0166.0385.0164.0381-.1889,2.1262.4182,3.8826,2.3394,5.0275Z"/><path class="cls-12" d="M622.1249,566.9553c-20.592,8.9126-41.184,17.8252-63.3049,27.3995.5775-21.3979,3.736-41.3983,7.8956-61.1581,30.0087-142.5523,94.9689-265.0138,207.8883-359.6584,18.2872-15.3277,38.1607-28.4626,58.6608-40.6598,3.6922-2.1968,7.3841-3.8355,11.7485-3.5239,5.5753,4.018.5694,6.395-1.6152,8.773-7.0803,7.7073-17.2302,11.9545-24.4234,18.9503-29.6086,28.796-53.88,62.1638-77.5161,95.8924-12.6188,18.007-21.6476,38.2818-33.1788,56.8454-13.6754,22.0155-24.364,45.4448-33.969,68.958-13.6803,33.4893-24.7415,68.1557-34.0933,103.3433-7.456,28.0547-11.5142,56.6845-18.0925,84.8384Z"/><path class="cls-12" d="M888.3446,514.3818c-42.8445,4.3143-85.7763,7.9362-128.1134,16.2564-9.1117,1.7906-5.6677-5.0796-5.3299-8.6145,3.8695-40.4827,11.8425-80.2142,23.1285-119.2488,17.4912-60.4959,42.0446-117.8441,77.1711-170.3776,5.2717,3.3791,1.4763,7.4039.7252,11.1432-5.9402,29.5722-15.161,58.3599-13.223,89.4576,1.9419,31.1615,16.0816,50.9186,47.2528,57.8464,5.9254,1.317,5.5,4.777,6,9.0058,1.2966,10.9685-2.7833,21.4071-2.6496,32.2824.2772,22.5534-.0543,45.1139.155,67.6688.0526,5.6662-.3752,10.7776-5.1166,14.5802Z"/><path class="cls-3" d="M629.6461,581.8535c-.9155,7.187-6.682,9.9279-11.8638,13.5036-14.9256,10.2997-30.7865,19.5633-42.2212,35.1088,8.6054,4.1333,15.9912-.8622,23.5298-.795,44.7105.3988,89.3618-5.0633,134.0423-2.3429,37.448,2.2799,74.9027,3.6275,112.3742,5.1584,47.3615,1.9353,94.6527,5.9747,141.9155,9.8261,41.8529,3.4106,83.7979,6.4517,125.4975,10.7439,42.0668,4.33,84.2306,8.5657,126.2499,13.7978,42.0419,5.235,84.3409,8.3732,126.4463,13.145,28.0287,3.1766,55.8761,7.9283,83.8799,11.3582,17.7102,2.1692,35.665,2.1802,53.2454,5.765,1.4048.2865,3.9099-.2705,4.4718-1.2539,1.7217-3.0124-.5168-5.7016-2.1478-7.9347-10.7216-14.6805-24.6736-26.1232-38.0635-38.1973-5.4052-4.8741-13.4162-7.137-16.0224-14.9985,7.9684.1618,13.6952,5.5105,20.0888,9.0485,40.4447,22.3802,77.7698,49.0171,110.2046,82.1638,4.3009,4.3953,8.3673,9.0201,14.984,16.1813-363.4172-78.5063-727.7629-106.386-1096.1049-93.695,39.7497-28.9915,82.6482-51.569,129.4935-66.5833Z"/><path class="cls-2" d="M916.566,483.2815c2.2377-32.9737,5.5776-79.6636,8.4073-126.3844.4679-7.726,3.0131-9.6434,10.5099-9.1038,73.7919,5.3111,147.6183,10.1328,221.6294,10.9586,6.8046.076,8.476,2.4381,8.0455,8.9059-3.4987,52.5477-6.4549,105.1326-10.1878,157.6628-1.226,17.2539-14.3713,26.6285-32.2962,25.416-56.298-3.8084-112.5988-7.5876-168.9165-11.0891-33.1855-2.0634-39.5575-8.9604-37.1916-56.366ZM1131.9781,453.3432c.9351-14.5978,2.0043-29.1886,2.7681-43.7953.7824-14.9643-3.9082-21.2346-18.7197-22.2713-49.1946-3.4431-98.4206-6.4712-147.6573-9.2558-12.4376-.7034-18.7674,5.4182-19.5725,17.6548-2.0855,31.6981-4.051,63.4057-5.7773,95.125-.8276,15.207,3.6696,20.6148,19.2169,21.7069,48.3673,3.3976,96.7591,6.4747,145.1629,9.3095,14.7011.8609,20.464-4.7194,21.5893-19.6622,1.224-16.2536,2.032-32.5384,2.9899-48.8116Z"/><path class="cls-9" d="M383.6985,636.8871c-4.5227-4.6526-9.0454-9.3052-14.8398-15.266,11.3345,2.0066,21.2827,3.7677,32.3636,5.7294-4.8188-6.8785-12.55-6.2551-17.4236-10.4645,17.1898-5.0025,80.1283,5.8421,106.0622,18.4961-6.8096,5.1849-13.3657,10.1202-19.8556,15.1412-3.5331,2.7336-5.8529,6.1045-3.9215,10.7744,1.8257,4.4146,5.8373,3.9255,9.6095,3.9209,19.573-.0238,39.146-.0111,59.0873-.0111-13.3533,26.8651-27.3045,54.933-41.2529,82.9932-24.5635-19.0088-49.6392-36.8554-81.5804-41.5636-13.8172-2.0367-15.6159-.5842-12.0389,13.3596,6.069,23.658,15.8236,45.7939,28.9364,66.3425,9.8177,15.385,18.3581,31.8054,32.7213,43.8287-3.4923,13.4839-6.9846,26.9678-11.0236,42.5626-53.9338-66.4755-85.6035-140.1069-97.9845-222.2813.3696-.3771.7394-.7539,1.1094-1.1304,3.044,2.4973,6.0879,4.9946,9.8181,8.0548.9269-12.0622-9.0749-19.109-10.9637-29.9721,11.2558.5861,20.0762,7.0251,29.7322,11.0553,1.1285.8408,2.2701,2.0366,3.4579.21.0717-.1103-1.3087-1.1647-2.0134-1.7799Z"/><path class="cls-9" d="M1725.9026,757.1424c3.5964-2.5517,7.1926-5.1033,13.1013-9.2956-22.4455,80.0182-59.1638,148.6947-117.7249,207.941-2.1918-16.3865-4.0997-30.6523-6.0077-44.9168,1.475-.6766,3.2741-1.018,4.3775-2.0813,29.4872-28.4182,51.315-61.8593,65.7511-100.1902,3.1247-8.2967-1.9532-7.9633-7.4044-8.0098-24.8107-.2116-47.4213,7.6235-68.7988,19.333-4.797,2.6276-11.593,3.3973-13.2911,10.2921-9.4149-25.7133-18.8298-51.4266-28.5678-78.0217,14.2846.709,26.923,5.173,39.9325,7.5594,4.6865.8597,10.2485,3.5013,13.7273-2.0365,3.4123-5.4317-.7911-9.3561-3.928-13.2129-5.9988-7.3755-12.0536-14.7055-19.1148-23.3092,37.6891-8.9189,74.542-12.2051,113.4036-8.213-6.3577,5.1131-13.5039,5.2352-21.134,8.5653,11.4583,2.6895,21.7716-1.1281,34.3223.6641-6.4768,4.3975-11.0212,7.4829-15.5656,10.5684.281.7896.5619,1.5792.8429,2.3688,9.8302-2.6463,19.6603-5.2924,30.6894-8.2614-3.8428,11.4112-11.9188,18.4883-16.2891,27.7142-1.0281.4239-2.466.9185-1.5094,2.2181.4251.5772,2.087.2439,3.1875.324ZM1707.187,736.4065c-.2635-.2502-.5752-.7445-.7811-.7037-.5581.1106-1.0712.448-1.6023.6956.264.2504.5719.7425.7836.7041.5591-.1015,1.0763-.4332,1.5998-.696Z"/><path class="cls-6" d="M1177.6976,1796.9479c26.6285,1.1455,53.4525-1.6956,79.7569,5.5771,28.3422,7.8359,54.844,18.0576,71.0347,44.9017,2.3929,3.9675,4.6766,7.9349,4.8651,12.7274-6.3666,5.2963-12.5598,10.8151-19.1295,15.8418-18.2515,13.9646-39.1659,23.4953-60.612,30.3963-11.1058,3.5736-23.9972,8.1253-36.7085,3.3009.8449-1.8535,1.5074-3.8198,2.5694-5.5392,3.0258-4.8991,3.6186-9.5907-2.1821-12.5274-5.4499-2.7591-8.4116,1.3618-10.7825,5.398-3.1106,5.296-5.9378,10.7584-8.8871,16.1492-11.2145,1.0255-22.1573-1.511-33.2154-2.5343.6192-7.51,5.4268-12.871,9.4422-18.6823,2.673-3.8683,3.0787-8.1916-1.1-11.0903-4.0396-2.8026-8.0504-1.4518-10.8524,2.536-4.0338,5.7411-7.906,11.5955-11.8474,17.4014-7.2475-4.7786-13.1021-10.9611-18.1235-17.9831,15.9032-28.28,31.9852-56.465,45.7722-85.8731Z"/><path class="cls-11" d="M1566.6459,1838.415c-24.998,21.2723-52.9703,36.8849-85.0471,44.6888-7.925.5467-9.9443-4.5669-10.3668-11.0016-.379-5.7672.6876-11.7548-2.9019-16.9645-2.3029-22.4224-11.1509-42.7376-20.2725-62.9648,2.6626-13.066,5.4778-26.104,7.8991-39.2145.7779-4.2125,2.6615-6.6548,6.6993-8.0122,17.7597-5.9708,35.466-12.0999,53.1929-18.1726,25.6182,17.9717,37.8761,44.2756,45.7318,73.3247,1.6884,12.7723,3.3767,25.5444,5.0651,38.3167Z"/><path class="cls-6" d="M778.3303,1837.9216c17.1909-10.82,34.3158-21.6895,53.6512-28.567,24.6258-8.7591,49.881-12.9037,76.014-11.9944,5.38.1872,10.7905-.5039,16.1845-.7921,12.3221,25.4768,24.6467,50.9554,36.9713,76.4341-5.0153,4.5861-7.9727,11.7022-15.7902,12.8434-2.2113-5.3005-4.288-10.6626-6.6749-15.8829-2.0417-4.4653-5.8328-6.149-10.1773-3.9193-3.6309,1.8635-4.7718,5.3215-3.2202,9.5254,2.9843,8.0856,6.88,15.9286,7.1612,24.801-10.7007-.5876-20.9265,4.3503-31.7163,2.7258-1.3259-4.7322-2.6631-9.4611-3.9743-14.1974-1.2698-4.5865-3.9915-7.2622-8.9921-6.2603-5.3094,1.0633-5.9612,4.9051-5.1252,9.4582.8135,4.4302,1.5751,8.87,2.3594,13.3055-17.0972-3.569-33.682-9.0719-48.704-17.7732-21.8717-12.6686-43.1243-26.486-58.6324-47.227.2217-.8265.4435-1.6531.6652-2.4796Z"/><path class="cls-11" d="M506.6821,1706.8766c40.5647,16.9464,82.2775,19.8039,124.7256,9.0457,13.1886-3.3426,26.306-3.8134,39.6731-4.0178,7.7864-.119,14.5657,1.5555,17.7616,8.921,3.0435,7.0143,1.169,14.0598-3.8154,19.8803-19.5469,22.8259-44.1691,37.6841-72.6201,46.9389-19.7515,6.425-39.9139,8.1379-60.4437,7.7212-10.1665-.731-20.0513-4.1812-30.3989-3.123-15.8372-26.1432-27.4651-53.7944-30.306-84.5947,4.5991-11.1299,10.3999,1.8279,15.4238-.7716Z"/><path class="cls-11" d="M508.87,1521.124c11.3998,2.2444,17.5264,12.1957,26.2559,18.307,23.4338,16.4058,50.2045,21.0793,77.5807,24.5835,9.0148,1.154,18.1232,2.7128,26.7574,5.4483,14.1313,4.4774,15.9106,11.4305,4.7574,20.9888-17.5927,15.077-38.6271,24.1579-60.4863,31.4011-29.3482,9.725-59.2037,12.6924-89.7559,7.2176-4.9841-2.3691-4.7772-7.6352-6.573-11.7845,3.1404-32.9498,8.7819-65.3416,21.4638-96.1618Z"/><path class="cls-5" d="M521.5644,1792.2429c10.3476-1.0581,20.2324,2.3921,30.3989,3.123,19.2315,22.0691,39.079,44.2477,64.0767,59.187,29.9008,17.8696,61.1354,35.149,98.1255,33.3404,6.1734-.3017,12.529,5.8493,17.999.815,6.2942-5.7925-1.2717-11.5958-2.4654-17.0338-4.0018-18.2308-5.8582-36.7188-8.7826-55.0688-2.3205-14.5609-.1581-28.6572,3.337-44.5077,5.0785,6.1201,9.1384,11.0126,13.1982,15.9051-11.7794-1.771-12.4779,4.4665-10.1574,13.5456,13.033,50.9942,37.1637,94.6344,84.9592,126.0638-20.5065.279-37.8599-2.2222-55.1786-4.4893-54.7407-7.1661-107.3752-21.1484-154.9576-50.2544-33.2666-20.3489-61.3183-46.1431-80.553-80.626Z"/><path class="cls-3" d="M622.1249,566.9552c6.5782-28.1539,10.6364-56.7837,18.0925-84.8384,9.3517-35.1877,20.413-69.854,34.0933-103.3433,9.605-23.5132,20.2936-46.9425,33.969-68.958,11.5312-18.5635,20.5599-38.8384,33.1788-56.8454,23.6361-33.7285,47.9075-67.0963,77.5161-95.8924,7.1933-6.9958,17.3431-11.243,24.4234-18.9503,2.1846-2.378,7.1905-4.755,1.6152-8.773-.6934-5.4551,4.3221-5.7337,7.2264-7.1159,13.0309-6.2017,26.311-11.8801,39.9328-16.9366-42.0372,37.0231-79.6642,77.6871-112.4219,122.8277-68.5959,94.5263-113.4257,199.2129-132.4678,314.4666-2.7325,16.5393-10.7082,22.4974-25.1577,24.359Z"/><path class="cls-7" d="M906.2755,1702.067c9.2813-.4679,8.9255,8.0815,10.7296,13.0216,18.2866,50.0747,43.5101,96.774,68.8743,143.4111,8.2812,15.2266,12.3833,16.6706,30.1168,14.0852,31.5307-4.5968,63.2684-1.0848,94.8986-1.995,3.207-.0924,5.6517,1.213,6.7307,4.4567-8.1084,13.9172-12.5883,27.9325-4.4781,43.8123,3.9716,7.7761-2.5652,5.0097-6.1339,4.6181-2.2614-3.3881-5.79-2.7816-9.0601-2.7839-34.2224-.0233-68.4447-.0207-102.667.0104-3.268.0029-6.7982-.6102-9.0765,2.7583-5.7224,1.2306-11.4268,1.2351-18.3079-.1901,6.7313-8.7251,13.1494-16.8793,14.3281-27.7159.9387-8.6302-.1627-16.8744-4.4481-24.262-30.9775-53.4045-51.9927-110.9935-71.5066-169.2269Z"/><path class="cls-3" d="M1185.0952,549.031c-7.4061,2.5269-8.74,9.3891-10.2195,15.5344-3.8224,15.8772-13.5732,24.6452-29.6391,24.7533-45.3406.3049-90.4512-2.2493-135.6763-6.4915-28.9724-2.7176-57.3364-8.847-86.2657-11.1211-22.399-1.7607-27.6564-6.9006-29.7196-29.4879-.628-6.874-3.5506-8.0538-9.4424-8.2882-8.6171-.3428-17.4522,2.0694-25.852-1.6471,7.4934-.6635,15.0034-1.1797,22.4764-2.0235,12.4796-1.409,23.9784-3.3253,32.3409,10.9403,5.2942,9.0312,16.8111,11.8752,27.66,12.5738,61.7852,3.979,123.5655,8.0395,185.3631,11.8165,12.7784.781,24.6296-3.4139,32.3417-13.6169,8.5456-11.3057,17.0695-8.3702,26.6325-2.9421Z"/><path class="cls-3" d="M1257.7686,255.1546c-13.268-5.0601-7.7717,6.3109-7.2935,9.7634,4.1285,29.8249,4.1641,59.7816,4.952,89.7793.4501,17.1395-9.2125,26.834-20.4776,36.0674-9.6662,7.9227-21.3989,12.704-32.9502,17.073-5.3235,2.0134-7.4369,3.9099-7.2719,9.397,1.0051,33.4598-5.4576,66.1928-9.8161,99.1345-.9283,7.0164-.4891,11.5615,9.3188,13.5691,35.3619,7.2383,70.8577,14.1696,105.4744,24.671,4.763,1.4449,9.4906,3.2351,13.137,6.9296-45.1896-11.9383-90.402-23.8004-136.6606-30.9874-7.6794-1.1931-6.1839-6.4277-5.8671-11.2323,2.8886-43.7948,5.6874-87.5964,8.8378-131.3726,2.076-28.848,2.3153-28.8309,31.0924-28.7864,1.6728.0026,3.3456.0125,5.0184.0091,21.064-.0426,26.3728-4.9788,26.1792-25.683-.2973-31.7719-1.0165-63.5398-1.5307-95.3099-.0768-4.7555-.0107-9.5134-.0107-17.9326,7.8182,13.463,14.3304,23.3809,17.8686,34.9106Z"/><path class="cls-8" d="M461.5661,830.1681c-14.3632-12.0233-22.9036-28.4438-32.7213-43.8287-13.1129-20.5486-22.8675-42.6845-28.9364-66.3425-3.577-13.9438-1.7783-15.3963,12.0389-13.3596,31.9412,4.7082,57.0169,22.5548,81.5803,41.5636-10.6557,27.3275-21.3086,54.6474-31.9615,81.9673Z"/><path class="cls-3" d="M888.3446,514.3818c4.7415-3.8027,5.1692-8.914,5.1166-14.5802-.2093-22.5549.1222-45.1155-.155-67.6688-.1337-10.8753,3.9462-21.3139,2.6496-32.2824-.5-4.2289-.0745-7.6889-6-9.0058-31.1712-6.9278-45.3108-26.6849-47.2528-57.8464-1.9379-31.0977,7.2829-59.8854,13.223-89.4576.7511-3.7393,4.5465-7.764-.7252-11.1432,5.8016-9.903,12.1344-19.4218,20.0891-27.7671.5928.5655,1.2261,1.081,1.9,1.5467-6.6704,36.5415-13.415,73.0697-19.9781,109.6305-3.019,16.8183,3.7273,25.5158,20.5531,27.0747,8.3227.7711,16.6374,1.957,24.974,2.1454,6.8819.1555,8.2119,3.2186,7.7911,9.4103-3.4295,50.4583-6.8615,100.9194-9.6732,151.4143-.5541,9.9524-6.0659,9.0606-12.5124,8.5297Z"/><path class="cls-8" d="M1595.9055,830.2148c1.6982-6.8948,8.4943-7.6645,13.2913-10.2921,21.3774-11.7095,43.9881-19.5446,68.7988-19.333,5.4512.0465,10.529-.2869,7.4044,8.0098-14.436,38.3309-36.2639,71.772-65.7511,100.1902-1.1034,1.0633-2.9025,1.4047-4.3775,2.0813-6.4554-26.8862-12.9106-53.7712-19.3658-80.6562Z"/><path class="cls-11" d="M1448.2691,1684.3966c-32.8274-4.0495-60.5211-19.2693-85.5319-39.9188-5.3572-4.4228-5.2094-9.7325,1.2268-14.3396,10.3116-7.3812,22.4383-10.6073,33.7562-15.6845,16.6534-7.4713,33.2488-15.0721,49.8682-22.6127,2.5318,30.8383,4.742,61.6738.6807,92.5555Z"/><path class="cls-8" d="M1561.5809,1800.0983c-7.8559-29.049-20.1138-55.3529-45.732-73.3247,19.366-9.9546,38.733-19.9102,58.0989-29.8646,15.2261,14.4088,24.9054,32.7011,35.3376,50.4656-.209.8499-.4176,1.7003-.6263,2.5507-14.2766,18.053-28.0416,36.5861-47.0782,50.1729Z"/><path class="cls-7" d="M777.665,1840.4012c15.5082,20.7409,36.7608,34.5583,58.6325,47.227,15.0221,8.7013,31.6069,14.2042,48.704,17.7732,1.6325,18.4979-9.0892,29.2027-27.0788,24.4734-43.7769-11.5084-75.8986-37.8765-95.3593-79.1087,6.8758-.7713,9.295-8.037,15.1016-10.3649Z"/><path class="cls-7" d="M1216.9041,1909.6931c12.7113,4.8245,25.6027.2727,36.7085-3.3009,21.4461-6.901,42.3605-16.4318,60.612-30.3963,6.5697-5.0267,12.7629-10.5455,19.1295-15.8418,1.5773,1.8064,3.153,3.6149,4.7278,5.425-19.5032,38.642-50.3318,63.5204-91.7375,75.6018-4.5131,1.3168-8.987,1.5349-13.6281.9649-23.5098-2.8879-27.8476-11.7384-15.8123-32.4526Z"/><path class="cls-5" d="M1353.9801,1870.2189c18.0763-4.6348,28.0908-19.0805,37.7299-32.9161,16.5061-23.6929,34.1005-46.9594,41.8747-75.6359,1.389-5.1237,3.0325,1.0448,4.7538.6919-11.2961,56.5768-30.2407,108.9022-80.9074,143.1378-12.1705,8.2236-25.6469,13.7349-44.4572,16.2585,18.3046-16.4408,30.5217-33.3521,41.0063-51.5362Z"/><path class="cls-9" d="M1609.2857,1747.3752c-10.4324-17.7651-20.1118-36.0574-35.3379-50.4662,25.5391-16.8152,50.8603-33.9367,74.9259-52.8385,1.6558.1173,3.3115.2346,4.9673.3517-.0251,6.6461-.0504,13.2923-.0756,19.9384-5.0805,1.1254-5.3297,5.5944-6.8118,9.424-9.9964,25.8316-20.1592,51.5975-37.6679,73.5907Z"/><path class="cls-11" d="M1445.1586,1563.8983c-15.6714.1965-31.0215-2.4198-46.3563-5.2317-7.3041-1.3393-12.7206-4.8899-15.1834-12.1873-1.0743-15.8461,9.2398-26.2551,17.8915-37.458,5.761-1.3361,8.291-6.8126,12.6688-9.8665,6.8877-4.8045,7.6136-15.0802,16.3966-18.0603,8.3368,26.9892,11.8845,54.8216,14.5828,82.8037Z"/><path class="cls-5" d="M1561.5807,1800.0983c19.0368-13.5868,32.8018-32.12,47.0828-50.1729,5.828,8.6573,6.4049,19.2784,10.6767,28.5167-13.1137,23.9002-30.7178,43.8554-52.6931,59.972-1.6897-12.7714-3.3779-25.5435-5.0664-38.3158Z"/><path class="cls-5" d="M1468.33,1855.1377c3.5895,5.2097,2.5229,11.1973,2.9019,16.9645.4225,6.4347,2.4418,11.5483,10.3668,11.0016-27.204,10.7969-55.4859,12.3901-85.7329,11.0744,8.8503-12.5253,16.6417-23.5523,24.4332-34.5795,1.5708,2.6493,3.6522,2.2753,6.3986,1.8178,13.8421-2.3055,27.7485-4.2243,41.6323-6.2787Z"/><path class="cls-7" d="M1619.3402,1778.4421c-4.2717-9.2384-4.8487-19.8594-10.6767-28.5167.2042-.8504.4129-1.7008.6218-2.5507,17.509-21.9926,27.6718-47.7585,37.6682-73.59,1.4821-3.8296,1.7314-8.2986,6.8118-9.424-.9355,41.2075-11.2174,79.5947-34.4252,114.0816Z"/><path class="cls-8" d="M1468.33,1855.1377c-13.8838,2.0545-27.7902,3.9733-41.6323,6.2787-2.7464.4575-4.8278.8315-6.3986-1.8178,11.5611-21.5244,19.6122-44.4938,27.7581-67.425,9.1219,20.2264,17.9699,40.5416,20.2728,62.9641Z"/><path class="cls-5" d="M642.2863,1363.113c1.5757,13.2908,3.1514,26.5814,4.726,39.8699-.2414.8729-.4816,1.7483-.7249,2.6231-11.9357-16.7194-31.3707-22.6211-47.6637-33.0533,4.2553-5.1952,10.2006-8.1649,15.5597-11.9289,10.1444-7.1255,19.5594-7.6627,28.1028,2.4893Z"/><path class="cls-8" d="M1430.5758,1481.0945c-8.783,2.9802-9.5089,13.2558-16.3966,18.0603-4.3778,3.0539-6.9078,8.5304-12.6688,9.8665,6.5113-24.8084,10.3575-50.0339,11.8372-75.63.1231-2.1307.6856-4.0593,2.6357-5.2893,7.7883,16.857,12.3081,34.617,14.5924,52.9924Z"/><path class="cls-5" d="M487.4062,1617.2858c1.7957,4.1493,1.5889,9.4154,6.573,11.7845,2.5105,26.2168,5.649,52.3332,12.7018,77.8086-5.0227,2.5972-10.8235-10.3606-15.4226.7693-8.5112-29.8119-7.4402-60.0334-3.8521-90.3624Z"/><path class="cls-7" d="M1164.4065,1910.6393c11.0581,1.0233,22.0009,3.5598,33.2154,2.5343-2.7382,11.0747-3.2191,21.9315,3.8974,32.1172-30.0512.5633-43.5755-12.3467-37.1128-34.6515Z"/><path class="cls-7" d="M900.7336,1903.0955c10.7898,1.6245,21.0156-3.3135,31.7163-2.7258,3.0953,25.8081-5.6558,33.4706-38.1821,32.6656,5.3916-9.4659,7.0098-19.5002,6.4658-29.9398Z"/><path class="cls-7" d="M1131.9254,1882.8211c5.0214,7.022,10.876,13.2045,18.1235,17.9831-.7765,9.8242-5.1665,19.4663-.1693,30.0078-26.3896-9.878-32.8814-28.411-17.9543-47.9909Z"/><path class="cls-7" d="M945.3612,1885.8455c7.8175-1.1412,10.7749-8.2573,15.7902-12.8434,12.0132,18.187,7.979,32.5138-13.3462,45.0227,1.4872-11.2205-.6553-21.6818-2.444-32.1793Z"/><path class="cls-5" d="M777.6651,1840.4012c-5.8067,2.3278-8.226,9.5936-15.1017,10.3649-9.0956-12.9638-13.7536-27.7752-17.7835-42.8471,7.7594-.5856,8.5324,6.8023,12.0017,10.874,6.323,7.4212,11.1291,16.3677,21.5463,19.1277-.2193.8274-.4411,1.654-.6628,2.4805Z"/><path class="cls-3" d="M1524.5977,576.5351c-9.2388-9.1916-4.186-21.4257-6.7514-32.0621-7.1752-29.7503-13.8958-59.6105-20.695-89.4503-.5392-2.3665-.302-4.9099-.4259-7.3728,14.7388,41.7824,23.608,84.8359,27.8723,128.8851Z"/><path class="cls-8" d="M775.1633,662.6736c-2.7411,2.6912-6.2275,1.9692-9.499,1.9717-51.3957.0376-102.7914.0455-154.1871.0229-3.2642-.0014-6.7746.7254-9.3798-2.2097,57.6909-1.6836,115.3794-1.5414,173.0659.2151Z"/><path class="cls-3" d="M1518.7384,654.8069c5.36.2129,8.2001.1677,8.2228-7.7207.0511-17.8259-2.8814-35.3853-2.9615-53.1244-.0182-4.0256-1.2826-8.3269,1.6208-11.9989,3.6973,26.2543,5.1373,52.6326,5.3319,79.9535-5.7671-1.0489-9.0624-3.9508-12.2139-7.1094Z"/><path class="cls-9" d="M986.2099,1923.4619c2.2783-3.3685,5.8085-2.7554,9.0765-2.7583,34.2223-.0311,68.4446-.0337,102.667-.0104,3.2702.0023,6.7988-.6042,9.0601,2.7839-40.2679,1.0381-80.5359,1.0345-120.8036-.0152Z"/><path class="cls-5" d="M1290.6309,157.0204c-3.7546,1.0207-7.5094,2.0415-11.2657,3.0613-8.608-8.1922-17.2142-16.3834-25.8206-24.5746,13.497,5.0987,25.9527,12.1503,37.0863,21.5133Z"/><path class="cls-3" d="M878.6687,182.8118c1.3684-12.9063,3.9421-25.3724,12.9631-35.4847-3.362,12.1779-1.972,26.0931-12.9631,35.4847Z"/><path class="cls-3" d="M891.6379,146.398c-1.9791-6.0194.3077-11.5621,2.3078-16.9631,1.7037-4.6008,1.055-7.2029-4.1448-7.7611,3.2388-4.4512,7.4602-7.7224,14.5637-11.796-4.7149,13.5298-8.7208,25.025-12.7267,36.5202Z"/><path class="cls-3" d="M1493.9844,438.6967c-5.0602-6.6806-9.6456-13.5283-7.9469-22.5868,4.3857,6.918,6.2124,14.7362,7.9469,22.5868Z"/><path class="cls-3" d="M1476.1137,390.9579c-6.5098-5.3484-10.1772-11.9664-9.2199-20.6497,4.4447,6.2713,7.4389,13.1898,9.2199,20.6497Z"/><path class="cls-3" d="M1484.0752,410.8714c-7.3337-4.2664-7.552-11.3646-7.4059-18.6096,3.8754,5.6424,6.1616,11.9187,7.4059,18.6096Z"/><path class="cls-3" d="M1454.4908,344.8585c-7.6388-2.0598-8.3029-8.0338-8.1256-14.4795,3.9904,4.1077,6.4497,9.0738,8.1256,14.4795Z"/><path class="cls-3" d="M1440.9124,320.6338c-5.1326-.4956-5.0343-4.1526-4.7775-7.905,2.594,2.0299,4.1942,4.6602,4.7775,7.905Z"/><path class="cls-5" d="M1308.0693,169.6716c-3.9314.1952-6.5544-1.3909-7.3805-5.4237,2.4605,1.8067,4.9206,3.6152,7.3805,5.4237Z"/><path class="cls-3" d="M840.4937,169.8974c-.2845,3.6704-1.0697,6.8612-5.9105,6.1648,1.9692-2.0572,3.9398-4.111,5.9105-6.1648Z"/><path class="cls-3" d="M883.3551,127.458c-.1893,3.228-1.9474,4.7216-5.1298,4.6393.9716-2.3636,2.7424-3.8423,5.1298-4.6393Z"/><path class="cls-3" d="M888.4314,122.7973c-.2865,2.9355-1.956,4.3663-4.8529,4.4603.8504-2.3225,2.6344-3.6278,4.8529-4.4603Z"/><path class="cls-5" d="M742.7967,1800.0852c2.7933,2.0789,2.261,5.0248,2.0556,7.8857-3.5107-1.892-2.0348-5.0839-2.0556-7.8857Z"/><path class="cls-3" d="M639.3952,578.6597c-1.7595,4.0169-5.1232,3.0955-8.3176,2.7011,2.1441-2.8322,5.3786-2.3116,8.3176-2.7011Z"/><path class="cls-3" d="M1462.1157,359.7223c-3.653-.3623-3.2216-2.8984-2.8688-5.3947.9571,1.7964,1.913,3.5955,2.8688,5.3947Z"/><path class="cls-5" d="M1294.9752,159.9599c-2.109-.1166-3.9177-.6749-4.4905-3.0523,1.4971,1.0169,2.9939,2.0346,4.4905,3.0523Z"/><path class="cls-3" d="M1260.2092,260.2519c-2.1076-1.0684-2.6837-2.8727-2.4366-5.0718,1.8952,1.1707,2.537,2.9429,2.4366,5.0718Z"/><path class="cls-7" d="M1653.841,1644.4221c-1.6558-.1171-3.3115-.2344-4.9673-.3517.8601-1.9464,2.3028-3.2034,4.458-2.8932.3189.046.3469,2.1129.5093,3.2449Z"/><path class="cls-3" d="M1446.3881,330.4019c-2.3058-.8685-2.9246-2.6686-2.7187-4.9236,1.982,1.0475,2.6659,2.8113,2.7187,4.9236Z"/><path class="cls-3" d="M1466.9205,370.277c-3.1722-.834-3.1756-3.1869-2.7526-5.7461,2.001,1.3953,2.5865,3.4703,2.7526,5.7461Z"/><path class="cls-3" d="M1496.3215,446.222c-2.384-1.5975-2.5165-3.8911-1.9762-6.3954,2.0539,1.6995,2.1275,4.0128,1.9762,6.3954Z"/><path class="cls-3" d="M1262.6458,265.3205c-2.0381-1.0916-2.6597-2.8645-2.4275-5.0473,1.8237,1.195,2.5194,2.9318,2.4275,5.0473Z"/><path class="cls-3" d="M1265.0016,270.3861c-1.9212-1.1449-2.5283-2.9012-2.3394-5.0275,1.8117,1.196,2.5159,2.9069,2.3394,5.0275Z"/><path class="cls-3" d="M870.9382,192.7036c-.044-2.3038.3012-4.321,3.2566-4.4154-1.0838,1.4729-2.1702,2.9442-3.2566,4.4154Z"/><path class="cls-3" d="M1458.7669,353.2914c-2.0953-1.0341-2.8436-2.7707-2.616-5.015,1.8512,1.1618,2.6417,2.8755,2.616,5.015Z"/><path class="cls-3" d="M875.2901,204.6302c.4824-1.1346.2139-3.1795,2.2919-2.393.3162.1197-.2487,2.5668-.3989,3.9385-.6668-.4645-1.3002-.9801-1.8929-1.5455Z"/><path class="cls-3" d="M857.8356,151.8633c-.872.8727-1.744,1.7454-2.617,2.6177.8716-.8728,1.7443-1.7453,2.617-2.6177Z"/><path class="cls-3" d="M855.3207,154.3745c-.8398.8823-1.6795,1.7645-2.5198,2.6462.8397-.8824,1.6798-1.7643,2.5198-2.6462Z"/><path class="cls-3" d="M852.8381,156.9777c-.8477.8585-1.6953,1.717-2.5431,2.5751.8474-.8586,1.6953-1.7169,2.5431-2.5751Z"/><path class="cls-3" d="M847.864,162.0254c-.8477.8965-1.6955,1.7931-2.5428,2.689.8478-.8967,1.6953-1.7929,2.5428-2.689Z"/><path class="cls-5" d="M1300.8941,164.4391c-.9814-.7682-1.9626-1.5364-2.9431-2.3041.9817.7684,1.9624,1.5363,2.9431,2.3041Z"/><path class="cls-3" d="M862.9031,146.6679c-.8757.9277-1.7515,1.8554-2.628,2.7826.8755-.9279,1.7517-1.8552,2.628-2.7826Z"/><path class="cls-3" d="M850.3463,159.4987c-.8485.8635-1.697,1.7271-2.546,2.5902.8484-.8637,1.6972-1.7269,2.546-2.5902Z"/><path class="cls-3" d="M868.6786,195.5648c.7647-.9715,1.5294-1.943,2.2942-2.9144-.7646.9715-1.5294,1.943-2.2942,2.9144Z"/><path class="cls-3" d="M1463.7604,363.3255c-1.2822-.6891-2.0039-1.625-1.3817-3.1506.4641,1.0499.9228,2.1002,1.3817,3.1506Z"/><path class="cls-3" d="M1456.0841,348.1227c-.5233-1.0402-1.0465-2.0804-1.5667-3.123.5242,1.0394,1.0454,2.0812,1.5667,3.123Z"/><path class="cls-3" d="M878.1722,132.1487c-.8486.8081-1.6972,1.6163-2.5456,2.4242.8487-.8082,1.6972-1.6161,2.5456-2.4242Z"/><path class="cls-3" d="M875.613,134.5817c-.848.8294-1.6959,1.6588-2.5439,2.4878.848-.8296,1.6959-1.6587,2.5439-2.4878Z"/><path class="cls-3" d="M866.2871,198.7566c.0258-1.7405.8704-2.8672,2.5357-3.3798-.8442,1.1265-1.69,2.2532-2.5357,3.3798Z"/><path class="cls-3" d="M852.967,533.1212c-1.0476.1916-2.0952.3832-3.1445.5741,1.0471-.1918,2.0958-.383,3.1445-.5741Z"/><path class="cls-3" d="M1515.5786,652.5312c1.0554.7593,2.1107,1.5187,3.1657,2.2779-1.0554-.7594-2.1105-1.5187-3.1657-2.2779Z"/><path class="cls-3" d="M873.0845,137.053c-.8832.8208-1.7665,1.6416-2.6502,2.4621.8832-.821,1.7667-1.6416,2.6502-2.4621Z"/><path class="cls-3" d="M870.5109,139.441c-.8854.8397-1.7708,1.6795-2.6567,2.5189.8852-.8398,1.7709-1.6793,2.6567-2.5189Z"/><path class="cls-3" d="M832.1784,179.1545c-.0562,1.8203-1.073,2.6765-2.8161,2.8049.9379-.9349,1.877-1.8699,2.8161-2.8049Z"/><path class="cls-3" d="M867.9328,141.8833c-.9071.8889-1.8141,1.7778-2.721,2.6663.9071-.889,1.814-1.7776,2.721-2.6663Z"/><path class="cls-3" d="M834.0961,176.6203c.5553,1.6951-.1483,2.416-1.8394,2.3725.6118-.7921,1.2256-1.5823,1.8394-2.3725Z"/><path class="cls-3" d="M874.1889,188.2834c-.1919-1.66.5959-2.5723,2.1914-2.8691-.7295.9566-1.4605,1.9128-2.1914,2.8691Z"/><path class="cls-3" d="M860.3161,149.3906c-.8602.8597-1.7202,1.7195-2.5814,2.5787.8598-.8599,1.7205-1.7193,2.5814-2.5787Z"/><path class="cls-3" d="M1443.684,325.511c-.7144-1.2394-1.4289-2.4788-2.1432-3.7201.7144,1.2387,1.4287,2.4794,2.1432,3.7201Z"/><path class="cls-9" d="M352.558,650.4494c-.2415-.8852-.856-2.4424-.6651-2.5485,1.413-.7841,1.4741.5363,1.7739,1.4187-.3694.3759-.7393.7527-1.1088,1.1298Z"/><path class="cls-5" d="M1311.0026,171.9049c-.9932-.7537-1.9862-1.5074-2.9782-2.2612.9935.7537,1.9859,1.5075,2.9782,2.2612Z"/><path class="cls-3" d="M876.2533,185.5497c.8142-.9305,1.6283-1.861,2.4433-2.7911-.8139.9307-1.6286,1.8609-2.4433,2.7911Z"/><path class="cls-3" d="M842.9817,167.1206c-.7949.8904-1.5898,1.7808-2.3842,2.6705.7952-.8907,1.5897-1.7806,2.3842-2.6705Z"/><path class="cls-14" d="M1156.1823,1018.9717c-5.4156-41.5087,5.3293-77.0645,39.4546-103.2318,41.9683-32.1811,102.3118-26.592,137.5189,12.1551,36.2558,39.9014,36.3307,99.4797.199,139.0409-1.9438,2.1282-3.6974,4.4305-5.5364,6.6493-24.8588,20.023-52.9013,30.4825-84.9399,25.3943-40.5882-6.446-67.9111-29.9056-82.5967-68.1821-1.4934-3.8932-2.7388-7.8816-4.0994-11.8258ZM1234.1962,1016.6988c19.0921.4913,34.732-13.9964,35.4234-32.814.6793-18.4873-14.7276-34.8877-33.1621-35.3005-19.1237-.4282-34.3829,13.9011-35.2226,33.0762-.8257,18.8553,13.9373,34.5487,32.9612,35.0383Z"/><path class="cls-14" d="M707.5705,1051.312c-25.8456-22.4795-41.5605-49.6824-40.8539-85.0611.8536-42.734,27.7726-80.7703,67.8586-94.9897,40.8268-14.4822,85.0146-2.363,113.7086,31.1861,26.7341,31.2577,31.227,78.6876,10.9331,115.2823-2.0117,3.6276-3.9485,7.2967-5.9181,10.9444-19.9413,23.5442-44.1947,39.0668-75.7523,41.7603-25.7762,2.2004-48.5193-5.9168-69.976-19.1223ZM747.1098,953.2355c-.0317,19.2158,14.8026,34.2957,33.7887,34.3481,18.8225.052,34.2187-15.2366,34.3613-34.1212.1404-18.5978-15.6646-34.5712-34.1107-34.4738-18.987.1002-34.008,15.2127-34.0393,34.2469Z"/><path class="cls-4" d="M1001.3058,1086.1559c3.3772-13.0502-1.4861-23.577-9.0493-33.7535-5.96-8.0196-11.2176-16.6257-16.1301-25.3416-5.3464-9.4858-2.2439-18.8777,7.9543-22.371,18.3887-6.2988,37.0433-6.145,55.1053,1.4847,10.5201,4.444,12.9927,13.7948,6.6943,23.6129-4.0553,6.3216-8.2123,12.6946-13.1657,18.3007-12.4713,14.1146-17.4962,29.9856-17.276,49.0478.1569,13.5713,4.4622,22.6285,15.8264,28.5298,12.2508,6.362,24.2728,5.109,35.2317-3.3308,7.2572-5.589,11.3063-13.2595,12.8765-22.249.9573-5.4799,3.1546-10.0944,9.7231-8.5325,6.827,1.6237,5.9442,7.3527,4.7527,12.2702-4.4079,18.1931-14.3445,32.1138-32.7205,38.0401-18.2692,5.8919-35.0638,2.009-48.3693-11.807-5.6948-5.9134-8.433-6.7102-15.317-1.2694-14.9995,11.8547-32.4324,16.1648-50.3399,6.8555-17.8638-9.2865-23.2155-26.339-24.5536-45.1242-.3691-5.1806.8947-9.5796,6.8843-9.8119,5.0506-.1958,7.2713,3.231,7.4232,8.1327.0515,1.66.483,3.307.7233,4.9627,1.944,13.3947,6.0997,26.0154,20.3736,30.3382,15.9341,4.8257,28.1829-3.5575,39.0622-14.2477,7.0405-6.9183,2.6689-15.9522,4.2906-23.7367ZM1008.5155,1014.906c-5.9273,1.4878-14.77-1.1837-18.0003,4.6394-2.2635,4.0804,4.5758,9.6308,7.449,14.4631,2.3276,3.9148,4.9531,7.6516,7.3118,11.5489,3.8088,6.2932,7.5044,5.397,11.2862.0106,1.9048-2.7133,4.1224-5.2405,5.7532-8.1054,3.4141-5.9975,12.9024-12.8969,9.9806-17.0565-4.4175-6.2887-15.093-4.7693-23.7804-5.5001Z"/><path class="cls-4" d="M1131.9938,453.3442c-.9735,16.2722-1.7815,32.557-3.0055,48.8106-1.1253,14.9428-6.8882,20.5231-21.5893,19.6622-48.4038-2.8348-96.7956-5.9119-145.1629-9.3095-15.5472-1.0922-20.0444-6.4999-19.2169-21.7069,1.7264-31.7194,3.6918-63.427,5.7773-95.125.8051-12.2366,7.1349-18.3582,19.5725-17.6548,49.2367,2.7847,98.4628,5.8128,147.6573,9.2558,14.8115,1.0367,19.5021,7.307,18.7197,22.2713-.7638,14.6067-1.833,29.1975-2.7524,43.7964ZM1037.2792,502.6333c-.0049.0785-.0099.157-.0149.2355,22.5109,1.3367,45.0261,2.6069,67.5297,4.0575,5.5525.3578,9.4422.2661,9.8006-7.2786,1.387-29.1959,3.1221-58.3827,5.3244-87.5278.6042-7.9968-2.3533-9.9964-9.6161-10.412-45.4398-2.6004-90.8761-5.3186-136.274-8.5538-8.532-.6081-10.5226,2.1165-10.9012,10.0909-1.3268,27.9421-2.9794,55.8863-5.4431,83.7469-.829,9.3741,2.5865,11.2594,10.8107,11.6077,22.9437.9714,45.8579,2.6402,68.7838,4.0337Z"/><path class="cls-4" d="M383.6984,636.8872c.7047.6152,2.0851,1.6695,2.0135,1.7798-1.1878,1.8266-2.3295.6308-3.4579-.21.4479-.55.9301-1.0747,1.4445-1.5698Z"/><path class="cls-4" d="M1725.9026,757.1423c-1.1005-.08-2.7624.2533-3.1875-.3239-.9567-1.2997.4812-1.7942,1.5094-2.2181.5594.8473,1.1187,1.6947,1.6782,2.5421Z"/><path class="cls-4" d="M1707.1922,736.4178c-.5288.2515-1.0459.5832-1.605.6847-.2117.0384-.5196-.4538-.7836-.7041.5311-.2475,1.0442-.5849,1.6023-.6956.2059-.0408.5176.4535.7863.715Z"/><path class="cls-9" d="M1234.1962,1016.6988c-19.0239-.4895-33.787-16.1829-32.9612-35.0383.8397-19.1751,16.0989-33.5044,35.2226-33.0762,18.4344.4128,33.8414,16.8132,33.1621,35.3005-.6914,18.8176-16.3313,33.3053-35.4234,32.814Z"/><path class="cls-9" d="M747.1098,953.2355c.0314-19.0342,15.0523-34.1467,34.0393-34.2469,18.4461-.0974,34.2511,15.8759,34.1107,34.4738-.1426,18.8846-15.5387,34.1732-34.3613,34.1212-18.9861-.0524-33.8204-15.1323-33.7887-34.3481Z"/><path class="cls-13" d="M1008.5155,1014.906c8.6874.7307,19.363-.7886,23.7804,5.5001,2.9217,4.1596-6.5665,11.059-9.9806,17.0565-1.6308,2.8649-3.8484,5.3922-5.7532,8.1054-3.7818,5.3864-7.4773,6.2826-11.2862-.0106-2.3586-3.8973-4.9842-7.6341-7.3118-11.5489-2.8731-4.8324-9.7125-10.3827-7.449-14.4631,3.2304-5.8231,12.073-3.1516,18.0003-4.6394Z"/><path class="cls-13" d="M1037.2792,502.6333c-22.9259-1.3935-45.8401-3.0623-68.7838-4.0337-8.2242-.3482-11.6396-2.2336-10.8107-11.6077,2.4637-27.8607,4.1163-55.8048,5.4431-83.7469.3786-7.9744,2.3692-10.6989,10.9012-10.0909,45.3978,3.2352,90.8342,5.9534,136.274,8.5538,7.2627.4156,10.2203,2.4152,9.6161,10.412-2.2023,29.1451-3.9374,58.3319-5.3244,87.5278-.3584,7.5447-4.2481,7.6364-9.8006,7.2786-22.5036-1.4506-45.0188-2.7208-67.5297-4.0575.005-.0785.01-.157.0149-.2355Z"/></svg>